<?plantuml 1.2026.3beta3?><svg xmlns="http://www.w3.org/2000/svg" xmlns:xlink="http://www.w3.org/1999/xlink" contentStyleType="text/css" data-diagram-type="SEQUENCE" height="1595px" preserveAspectRatio="none" style="width:793px;height:1595px;background:#FFFFFF;" version="1.1" viewBox="0 0 793 1595" width="793px" zoomAndPan="magnify"><defs/><g><g class="participant-lifeline" data-entity-uid="part1" data-qualified-name="client" id="part1-lifeline"><g><title>.....</title><rect fill="#000000" fill-opacity="0.00000" height="1432.1719" width="8" x="38.9998" y="81.2969"/><line style="stroke:#181818;stroke-width:0.5;stroke-dasharray:5,5;" x1="42" x2="42" y1="81.2969" y2="1513.4688"/></g></g><g class="participant-lifeline" data-entity-uid="part2" data-qualified-name="oauth" id="part2-lifeline"><g><title>Gateway</title><rect fill="#000000" fill-opacity="0.00000" height="1432.1719" width="8" x="278.4647" y="81.2969"/><line style="stroke:#181818;stroke-width:0.5;stroke-dasharray:5,5;" x1="281.7372" x2="281.7372" y1="81.2969" y2="1513.4688"/></g></g><g class="participant-lifeline" data-entity-uid="part3" data-qualified-name="service" id="part3-lifeline"><g><title>OAuth Service</title><rect fill="#000000" fill-opacity="0.00000" height="1432.1719" width="8" x="474.5116" y="81.2969"/><line style="stroke:#181818;stroke-width:0.5;stroke-dasharray:5,5;" x1="478.4998" x2="478.4998" y1="81.2969" y2="1513.4688"/></g></g><g class="participant-lifeline" data-entity-uid="part4" data-qualified-name="user" id="part4-lifeline"><g><title>..</title><rect fill="#000000" fill-opacity="0.00000" height="1432.1719" width="8" x="631.5117" y="81.2969"/><line style="stroke:#181818;stroke-width:0.5;stroke-dasharray:5,5;" x1="634.5118" x2="634.5118" y1="81.2969" y2="1513.4688"/></g></g><g class="participant-lifeline" data-entity-uid="part5" data-qualified-name="db" id="part5-lifeline"><g><title>PostgreSQL</title><rect fill="#000000" fill-opacity="0.00000" height="1432.1719" width="8" x="735.4251" y="81.2969"/><line style="stroke:#181818;stroke-width:0.5;stroke-dasharray:5,5;" x1="739.0487" x2="739.0487" y1="81.2969" y2="1513.4688"/></g></g><g class="participant participant-head" data-entity-uid="part1" data-qualified-name="client" id="part1-head"><text fill="#000000" font-family="sans-serif" font-size="14" lengthAdjust="spacing" textLength="69.9997" x="5" y="77.9951">&#31532;&#19977;&#26041;&#24212;&#29992;</text><ellipse cx="42.9998" cy="13.5" fill="#E2E2F0" rx="8" ry="8" style="stroke:#181818;stroke-width:0.5;"/><path d="M42.9998,21.5 L42.9998,48.5 M29.9998,29.5 L55.9998,29.5 M42.9998,48.5 L29.9998,63.5 M42.9998,48.5 L55.9998,63.5" fill="none" style="stroke:#181818;stroke-width:0.5;"/></g><g class="participant participant-tail" data-entity-uid="part1" data-qualified-name="client" id="part1-tail"><text fill="#000000" font-family="sans-serif" font-size="14" lengthAdjust="spacing" textLength="69.9997" x="5" y="1525.4639">&#31532;&#19977;&#26041;&#24212;&#29992;</text><ellipse cx="42.9998" cy="1537.2656" fill="#E2E2F0" rx="8" ry="8" style="stroke:#181818;stroke-width:0.5;"/><path d="M42.9998,1545.2656 L42.9998,1572.2656 M29.9998,1553.2656 L55.9998,1553.2656 M42.9998,1572.2656 L29.9998,1587.2656 M42.9998,1572.2656 L55.9998,1587.2656" fill="none" style="stroke:#181818;stroke-width:0.5;"/></g><g class="participant participant-head" data-entity-uid="part2" data-qualified-name="oauth" id="part2-head"><rect fill="#E2E2F0" height="46.5938" rx="2.5" ry="2.5" style="stroke:#181818;stroke-width:0.5;" width="131.4551" x="216.7372" y="33.7031"/><text fill="#000000" font-family="sans-serif" font-size="14" lengthAdjust="spacing" textLength="61.8447" x="251.5423" y="53.6982">Gateway</text><text fill="#000000" font-family="sans-serif" font-size="14" lengthAdjust="spacing" textLength="117.4551" x="223.7372" y="69.9951">OAuth Controller</text></g><g class="participant participant-tail" data-entity-uid="part2" data-qualified-name="oauth" id="part2-tail"><rect fill="#E2E2F0" height="46.5938" rx="2.5" ry="2.5" style="stroke:#181818;stroke-width:0.5;" width="131.4551" x="216.7372" y="1512.4688"/><text fill="#000000" font-family="sans-serif" font-size="14" lengthAdjust="spacing" textLength="61.8447" x="251.5423" y="1532.4639">Gateway</text><text fill="#000000" font-family="sans-serif" font-size="14" lengthAdjust="spacing" textLength="117.4551" x="223.7372" y="1548.7607">OAuth Controller</text></g><g class="participant participant-head" data-entity-uid="part3" data-qualified-name="service" id="part3-head"><rect fill="#E2E2F0" height="30.2969" rx="2.5" ry="2.5" style="stroke:#181818;stroke-width:0.5;" width="114.0234" x="421.4998" y="50"/><text fill="#000000" font-family="sans-serif" font-size="14" lengthAdjust="spacing" textLength="100.0234" x="428.4998" y="69.9951">OAuth Service</text></g><g class="participant participant-tail" data-entity-uid="part3" data-qualified-name="service" id="part3-tail"><rect fill="#E2E2F0" height="30.2969" rx="2.5" ry="2.5" style="stroke:#181818;stroke-width:0.5;" width="114.0234" x="421.4998" y="1512.4688"/><text fill="#000000" font-family="sans-serif" font-size="14" lengthAdjust="spacing" textLength="100.0234" x="428.4998" y="1532.4639">OAuth Service</text></g><g class="participant participant-head" data-entity-uid="part4" data-qualified-name="user" id="part4-head"><rect fill="#E2E2F0" height="30.2969" rx="2.5" ry="2.5" style="stroke:#181818;stroke-width:0.5;" width="41.9999" x="614.5118" y="50"/><text fill="#000000" font-family="sans-serif" font-size="14" lengthAdjust="spacing" textLength="27.9999" x="621.5118" y="69.9951">&#29992;&#25143;</text></g><g class="participant participant-tail" data-entity-uid="part4" data-qualified-name="user" id="part4-tail"><rect fill="#E2E2F0" height="30.2969" rx="2.5" ry="2.5" style="stroke:#181818;stroke-width:0.5;" width="41.9999" x="614.5118" y="1512.4688"/><text fill="#000000" font-family="sans-serif" font-size="14" lengthAdjust="spacing" textLength="27.9999" x="621.5118" y="1532.4639">&#29992;&#25143;</text></g><g class="participant participant-head" data-entity-uid="part5" data-qualified-name="db" id="part5-head"><text fill="#000000" font-family="sans-serif" font-size="14" lengthAdjust="spacing" textLength="80.7529" x="696.0487" y="77.9951">PostgreSQL</text><path d="M721.4251,29 C721.4251,19 739.4251,19 739.4251,19 C739.4251,19 757.4251,19 757.4251,29 L757.4251,55 C757.4251,65 739.4251,65 739.4251,65 C739.4251,65 721.4251,65 721.4251,55 L721.4251,29" fill="#E2E2F0" style="stroke:#181818;stroke-width:0.5;"/><path d="M721.4251,29 C721.4251,39 739.4251,39 739.4251,39 C739.4251,39 757.4251,39 757.4251,29" fill="none" style="stroke:#181818;stroke-width:0.5;"/></g><g class="participant participant-tail" data-entity-uid="part5" data-qualified-name="db" id="part5-tail"><text fill="#000000" font-family="sans-serif" font-size="14" lengthAdjust="spacing" textLength="80.7529" x="696.0487" y="1525.4639">PostgreSQL</text><path d="M721.4251,1538.7656 C721.4251,1528.7656 739.4251,1528.7656 739.4251,1528.7656 C739.4251,1528.7656 757.4251,1528.7656 757.4251,1538.7656 L757.4251,1564.7656 C757.4251,1574.7656 739.4251,1574.7656 739.4251,1574.7656 C739.4251,1574.7656 721.4251,1574.7656 721.4251,1564.7656 L721.4251,1538.7656" fill="#E2E2F0" style="stroke:#181818;stroke-width:0.5;"/><path d="M721.4251,1538.7656 C721.4251,1548.7656 739.4251,1548.7656 739.4251,1548.7656 C739.4251,1548.7656 757.4251,1548.7656 757.4251,1538.7656" fill="none" style="stroke:#181818;stroke-width:0.5;"/></g><rect fill="#EEEEEE" height="3" style="stroke:#EEEEEE;stroke-width:1;" width="787.8016" x="0" y="111.8633"/><line style="stroke:#000000;stroke-width:1;" x1="0" x2="787.8016" y1="111.8633" y2="111.8633"/><line style="stroke:#000000;stroke-width:1;" x1="0" x2="787.8016" y1="114.8633" y2="114.8633"/><rect fill="#EEEEEE" height="23.1328" style="stroke:#000000;stroke-width:2;" width="89.0357" x="349.3829" y="101.2969"/><text fill="#000000" font-family="sans-serif" font-size="13" font-weight="bold" lengthAdjust="spacing" textLength="70.5098" x="355.3829" y="117.3638">1. &#25480;&#26435;&#35831;&#27714;</text><g class="message" data-entity-1="part1" data-entity-2="part2" id="msg1"><polygon fill="#181818" points="270.4647,212.0938,280.4647,216.0938,270.4647,220.0938,274.4647,216.0938" style="stroke:#181818;stroke-width:1;"/><line style="stroke:#181818;stroke-width:1;" x1="42.9998" x2="276.4647" y1="216.0938" y2="216.0938"/><text fill="#000000" font-family="sans-serif" font-size="13" lengthAdjust="spacing" textLength="144.79" x="49.9998" y="150.4966">GET /oauth/authorize?</text><text fill="#000000" font-family="sans-serif" font-size="13" lengthAdjust="spacing" textLength="147.2529" x="49.9998" y="165.6294">response_type=code&amp;</text><text fill="#000000" font-family="sans-serif" font-size="13" lengthAdjust="spacing" textLength="98.1792" x="49.9998" y="180.7622">client_id=xxx&amp;</text><text fill="#000000" font-family="sans-serif" font-size="13" lengthAdjust="spacing" textLength="118.5996" x="49.9998" y="195.895">redirect_uri=xxx&amp;</text><text fill="#000000" font-family="sans-serif" font-size="13" lengthAdjust="spacing" textLength="115.394" x="49.9998" y="211.0278">scope=read write</text></g><g class="message" data-entity-1="part2" data-entity-2="part3" id="msg2"><polygon fill="#181818" points="466.5116,241.2266,476.5116,245.2266,466.5116,249.2266,470.5116,245.2266" style="stroke:#181818;stroke-width:1;"/><line style="stroke:#181818;stroke-width:1;" x1="282.4647" x2="472.5116" y1="245.2266" y2="245.2266"/><text fill="#000000" font-family="sans-serif" font-size="13" lengthAdjust="spacing" textLength="84.2017" x="289.4647" y="240.1606">&#39564;&#35777; client_id</text></g><g class="message" data-entity-1="part3" data-entity-2="part5" id="msg3"><polygon fill="#181818" points="727.4251,285.4922,737.4251,289.4922,727.4251,293.4922,731.4251,289.4922" style="stroke:#181818;stroke-width:1;"/><line style="stroke:#181818;stroke-width:1;" x1="478.5116" x2="733.4251" y1="289.4922" y2="289.4922"/><text fill="#000000" font-family="sans-serif" font-size="13" lengthAdjust="spacing" textLength="185.4976" x="485.5116" y="269.2935">SELECT * FROM oauth_client</text><text fill="#000000" font-family="sans-serif" font-size="13" lengthAdjust="spacing" textLength="132.3486" x="485.5116" y="284.4263">WHERE client_id = ?</text></g><g class="message" data-entity-1="part5" data-entity-2="part3" id="msg4"><polygon fill="#181818" points="489.5116,314.625,479.5116,318.625,489.5116,322.625,485.5116,318.625" style="stroke:#181818;stroke-width:1;"/><line style="stroke:#181818;stroke-width:1;stroke-dasharray:2,2;" x1="483.5116" x2="738.4251" y1="318.625" y2="318.625"/><text fill="#000000" font-family="sans-serif" font-size="13" lengthAdjust="spacing" textLength="82.4688" x="495.5116" y="313.5591">OAuth Client</text></g><g class="message" data-entity-1="part3" data-entity-2="part3" id="msg5"><line style="stroke:#181818;stroke-width:1;" x1="478.5116" x2="520.5116" y1="347.7578" y2="347.7578"/><line style="stroke:#181818;stroke-width:1;" x1="520.5116" x2="520.5116" y1="347.7578" y2="360.7578"/><line style="stroke:#181818;stroke-width:1;" x1="479.5116" x2="520.5116" y1="360.7578" y2="360.7578"/><polygon fill="#181818" points="489.5116,356.7578,479.5116,360.7578,489.5116,364.7578,485.5116,360.7578" style="stroke:#181818;stroke-width:1;"/><text fill="#000000" font-family="sans-serif" font-size="13" lengthAdjust="spacing" textLength="104.6221" x="485.5116" y="342.6919">&#39564;&#35777; redirect_uri</text></g><g class="message" data-entity-1="part3" data-entity-2="part3" id="msg6"><line style="stroke:#181818;stroke-width:1;" x1="478.5116" x2="520.5116" y1="389.8906" y2="389.8906"/><line style="stroke:#181818;stroke-width:1;" x1="520.5116" x2="520.5116" y1="389.8906" y2="402.8906"/><line style="stroke:#181818;stroke-width:1;" x1="479.5116" x2="520.5116" y1="402.8906" y2="402.8906"/><polygon fill="#181818" points="489.5116,398.8906,479.5116,402.8906,489.5116,406.8906,485.5116,402.8906" style="stroke:#181818;stroke-width:1;"/><text fill="#000000" font-family="sans-serif" font-size="13" lengthAdjust="spacing" textLength="68.2564" x="485.5116" y="384.8247">&#39564;&#35777; scope</text></g><g class="message" data-entity-1="part2" data-entity-2="part4" id="msg7"><polygon fill="#181818" points="623.5117,428.0234,633.5117,432.0234,623.5117,436.0234,627.5117,432.0234" style="stroke:#181818;stroke-width:1;"/><line style="stroke:#181818;stroke-width:1;stroke-dasharray:2,2;" x1="282.4647" x2="629.5117" y1="432.0234" y2="432.0234"/><text fill="#000000" font-family="sans-serif" font-size="13" lengthAdjust="spacing" textLength="78.0001" x="289.4647" y="426.9575">&#26174;&#31034;&#25480;&#26435;&#39029;&#38754;</text></g><rect fill="#EEEEEE" height="3" style="stroke:#EEEEEE;stroke-width:1;" width="787.8016" x="0" y="460.5898"/><line style="stroke:#000000;stroke-width:1;" x1="0" x2="787.8016" y1="460.5898" y2="460.5898"/><line style="stroke:#000000;stroke-width:1;" x1="0" x2="787.8016" y1="463.5898" y2="463.5898"/><rect fill="#EEEEEE" height="23.1328" style="stroke:#000000;stroke-width:2;" width="89.0357" x="349.3829" y="450.0234"/><text fill="#000000" font-family="sans-serif" font-size="13" font-weight="bold" lengthAdjust="spacing" textLength="70.5098" x="355.3829" y="466.0903">2. &#29992;&#25143;&#25480;&#26435;</text><g class="message" data-entity-1="part4" data-entity-2="part2" id="msg8"><polygon fill="#181818" points="293.4647,500.2891,283.4647,504.2891,293.4647,508.2891,289.4647,504.2891" style="stroke:#181818;stroke-width:1;"/><line style="stroke:#181818;stroke-width:1;" x1="287.4647" x2="634.5117" y1="504.2891" y2="504.2891"/><text fill="#000000" font-family="sans-serif" font-size="13" lengthAdjust="spacing" textLength="52.0001" x="299.4647" y="499.2231">&#25480;&#26435;&#30830;&#35748;</text></g><g class="message" data-entity-1="part2" data-entity-2="part3" id="msg9"><polygon fill="#181818" points="466.5116,529.4219,476.5116,533.4219,466.5116,537.4219,470.5116,533.4219" style="stroke:#181818;stroke-width:1;"/><line style="stroke:#181818;stroke-width:1;" x1="282.4647" x2="472.5116" y1="533.4219" y2="533.4219"/><text fill="#000000" font-family="sans-serif" font-size="13" lengthAdjust="spacing" textLength="172.0469" x="289.4647" y="528.356">createAuthorizationCode()</text></g><g class="message" data-entity-1="part3" data-entity-2="part3" id="msg10"><line style="stroke:#181818;stroke-width:1;" x1="478.5116" x2="520.5116" y1="562.5547" y2="562.5547"/><line style="stroke:#181818;stroke-width:1;" x1="520.5116" x2="520.5116" y1="562.5547" y2="575.5547"/><line style="stroke:#181818;stroke-width:1;" x1="479.5116" x2="520.5116" y1="575.5547" y2="575.5547"/><polygon fill="#181818" points="489.5116,571.5547,479.5116,575.5547,489.5116,579.5547,485.5116,575.5547" style="stroke:#181818;stroke-width:1;"/><text fill="#000000" font-family="sans-serif" font-size="13" lengthAdjust="spacing" textLength="143.0002" x="485.5116" y="557.4888">&#29983;&#25104;&#25480;&#26435;&#30721;&#65288;&#30701;&#26399;&#26377;&#25928;&#65289;</text></g><g class="message" data-entity-1="part3" data-entity-2="part5" id="msg11"><polygon fill="#181818" points="727.4251,615.8203,737.4251,619.8203,727.4251,623.8203,731.4251,619.8203" style="stroke:#181818;stroke-width:1;"/><line style="stroke:#181818;stroke-width:1;" x1="478.5116" x2="733.4251" y1="619.8203" y2="619.8203"/><text fill="#000000" font-family="sans-serif" font-size="13" lengthAdjust="spacing" textLength="82.8623" x="485.5116" y="599.6216">INSERT INTO</text><text fill="#000000" font-family="sans-serif" font-size="13" lengthAdjust="spacing" textLength="167.9907" x="485.5116" y="614.7544">oauth_authorization_code</text></g><g class="message" data-entity-1="part2" data-entity-2="part1" id="msg12"><polygon fill="#181818" points="53.9998,660.0859,43.9998,664.0859,53.9998,668.0859,49.9998,664.0859" style="stroke:#181818;stroke-width:1;"/><line style="stroke:#181818;stroke-width:1;stroke-dasharray:2,2;" x1="47.9998" x2="281.4647" y1="664.0859" y2="664.0859"/><text fill="#000000" font-family="sans-serif" font-size="13" lengthAdjust="spacing" textLength="83.4272" x="59.9998" y="643.8872">302 Redirect</text><text fill="#000000" font-family="sans-serif" font-size="13" lengthAdjust="spacing" textLength="146.7134" x="59.9998" y="659.02">redirect_uri?code=xxx</text></g><rect fill="#EEEEEE" height="3" style="stroke:#EEEEEE;stroke-width:1;" width="787.8016" x="0" y="692.6523"/><line style="stroke:#000000;stroke-width:1;" x1="0" x2="787.8016" y1="692.6523" y2="692.6523"/><line style="stroke:#000000;stroke-width:1;" x1="0" x2="787.8016" y1="695.6523" y2="695.6523"/><rect fill="#EEEEEE" height="23.1328" style="stroke:#000000;stroke-width:2;" width="166.3692" x="310.7162" y="682.0859"/><text fill="#000000" font-family="sans-serif" font-size="13" font-weight="bold" lengthAdjust="spacing" textLength="147.8433" x="316.7162" y="698.1528">3. &#33719;&#21462; Access Token</text><g class="message" data-entity-1="part1" data-entity-2="part2" id="msg13"><polygon fill="#181818" points="270.4647,792.8828,280.4647,796.8828,270.4647,800.8828,274.4647,796.8828" style="stroke:#181818;stroke-width:1;"/><line style="stroke:#181818;stroke-width:1;" x1="42.9998" x2="276.4647" y1="796.8828" y2="796.8828"/><text fill="#000000" font-family="sans-serif" font-size="13" lengthAdjust="spacing" textLength="121.4688" x="49.9998" y="731.2856">POST /oauth/token</text><text fill="#000000" font-family="sans-serif" font-size="13" lengthAdjust="spacing" textLength="215.4648" x="49.9998" y="746.4185">grant_type=authorization_code&amp;</text><text fill="#000000" font-family="sans-serif" font-size="13" lengthAdjust="spacing" textLength="75.4609" x="49.9998" y="761.5513">code=xxx&amp;</text><text fill="#000000" font-family="sans-serif" font-size="13" lengthAdjust="spacing" textLength="98.1792" x="49.9998" y="776.6841">client_id=xxx&amp;</text><text fill="#000000" font-family="sans-serif" font-size="13" lengthAdjust="spacing" textLength="116.5366" x="49.9998" y="791.8169">client_secret=xxx</text></g><g class="message" data-entity-1="part2" data-entity-2="part3" id="msg14"><polygon fill="#181818" points="466.5116,822.0156,476.5116,826.0156,466.5116,830.0156,470.5116,826.0156" style="stroke:#181818;stroke-width:1;"/><line style="stroke:#181818;stroke-width:1;" x1="282.4647" x2="472.5116" y1="826.0156" y2="826.0156"/><text fill="#000000" font-family="sans-serif" font-size="13" lengthAdjust="spacing" textLength="167.394" x="289.4647" y="820.9497">exchangeCodeForToken()</text></g><g class="message" data-entity-1="part3" data-entity-2="part5" id="msg15"><polygon fill="#181818" points="727.4251,851.1484,737.4251,855.1484,727.4251,859.1484,731.4251,855.1484" style="stroke:#181818;stroke-width:1;"/><line style="stroke:#181818;stroke-width:1;" x1="478.5116" x2="733.4251" y1="855.1484" y2="855.1484"/><text fill="#000000" font-family="sans-serif" font-size="13" lengthAdjust="spacing" textLength="65.0001" x="485.5116" y="850.0825">&#26597;&#35810;&#25480;&#26435;&#30721;</text></g><g class="message" data-entity-1="part3" data-entity-2="part3" id="msg16"><line style="stroke:#181818;stroke-width:1;" x1="478.5116" x2="520.5116" y1="914.5469" y2="914.5469"/><line style="stroke:#181818;stroke-width:1;" x1="520.5116" x2="520.5116" y1="914.5469" y2="927.5469"/><line style="stroke:#181818;stroke-width:1;" x1="479.5116" x2="520.5116" y1="927.5469" y2="927.5469"/><polygon fill="#181818" points="489.5116,923.5469,479.5116,927.5469,489.5116,931.5469,485.5116,927.5469" style="stroke:#181818;stroke-width:1;"/><text fill="#000000" font-family="sans-serif" font-size="13" lengthAdjust="spacing" textLength="65.0001" x="485.5116" y="879.2153">&#39564;&#35777;&#25480;&#26435;&#30721;</text><text fill="#000000" font-family="sans-serif" font-size="13" lengthAdjust="spacing" textLength="60.8233" x="485.5116" y="894.3481">- &#26159;&#21542;&#36807;&#26399;</text><text fill="#000000" font-family="sans-serif" font-size="13" lengthAdjust="spacing" textLength="73.8233" x="485.5116" y="909.481">- &#26159;&#21542;&#24050;&#20351;&#29992;</text></g><g class="message" data-entity-1="part3" data-entity-2="part3" id="msg17"><line style="stroke:#181818;stroke-width:1;" x1="478.5116" x2="520.5116" y1="956.6797" y2="956.6797"/><line style="stroke:#181818;stroke-width:1;" x1="520.5116" x2="520.5116" y1="956.6797" y2="969.6797"/><line style="stroke:#181818;stroke-width:1;" x1="479.5116" x2="520.5116" y1="969.6797" y2="969.6797"/><polygon fill="#181818" points="489.5116,965.6797,479.5116,969.6797,489.5116,973.6797,485.5116,969.6797" style="stroke:#181818;stroke-width:1;"/><text fill="#000000" font-family="sans-serif" font-size="13" lengthAdjust="spacing" textLength="118.6568" x="485.5116" y="951.6138">&#29983;&#25104; Access Token</text></g><g class="message" data-entity-1="part3" data-entity-2="part3" id="msg18"><line style="stroke:#181818;stroke-width:1;" x1="478.5116" x2="520.5116" y1="998.8125" y2="998.8125"/><line style="stroke:#181818;stroke-width:1;" x1="520.5116" x2="520.5116" y1="998.8125" y2="1011.8125"/><line style="stroke:#181818;stroke-width:1;" x1="479.5116" x2="520.5116" y1="1011.8125" y2="1011.8125"/><polygon fill="#181818" points="489.5116,1007.8125,479.5116,1011.8125,489.5116,1015.8125,485.5116,1011.8125" style="stroke:#181818;stroke-width:1;"/><text fill="#000000" font-family="sans-serif" font-size="13" lengthAdjust="spacing" textLength="123.8872" x="485.5116" y="993.7466">&#29983;&#25104; Refresh Token</text></g><g class="message" data-entity-1="part3" data-entity-2="part5" id="msg19"><polygon fill="#181818" points="727.4251,1036.9453,737.4251,1040.9453,727.4251,1044.9453,731.4251,1040.9453" style="stroke:#181818;stroke-width:1;"/><line style="stroke:#181818;stroke-width:1;" x1="478.5116" x2="733.4251" y1="1040.9453" y2="1040.9453"/><text fill="#000000" font-family="sans-serif" font-size="13" lengthAdjust="spacing" textLength="218.1118" x="485.5116" y="1035.8794">INSERT INTO oauth_access_token</text></g><g class="message" data-entity-1="part3" data-entity-2="part5" id="msg20"><polygon fill="#181818" points="727.4251,1066.0781,737.4251,1070.0781,727.4251,1074.0781,731.4251,1070.0781" style="stroke:#181818;stroke-width:1;"/><line style="stroke:#181818;stroke-width:1;" x1="478.5116" x2="733.4251" y1="1070.0781" y2="1070.0781"/><text fill="#000000" font-family="sans-serif" font-size="13" lengthAdjust="spacing" textLength="220.5811" x="485.5116" y="1065.0122">INSERT INTO oauth_refresh_token</text></g><g class="message" data-entity-1="part3" data-entity-2="part5" id="msg21"><polygon fill="#181818" points="727.4251,1095.2109,737.4251,1099.2109,727.4251,1103.2109,731.4251,1099.2109" style="stroke:#181818;stroke-width:1;"/><line style="stroke:#181818;stroke-width:1;" x1="478.5116" x2="733.4251" y1="1099.2109" y2="1099.2109"/><text fill="#000000" font-family="sans-serif" font-size="13" lengthAdjust="spacing" textLength="104.0001" x="485.5116" y="1094.145">&#26631;&#35760;&#25480;&#26435;&#30721;&#24050;&#20351;&#29992;</text></g><g class="message" data-entity-1="part2" data-entity-2="part1" id="msg22"><polygon fill="#181818" points="53.9998,1215.1406,43.9998,1219.1406,53.9998,1223.1406,49.9998,1219.1406" style="stroke:#181818;stroke-width:1;"/><line style="stroke:#181818;stroke-width:1;stroke-dasharray:2,2;" x1="47.9998" x2="281.4647" y1="1219.1406" y2="1219.1406"/><text fill="#000000" font-family="sans-serif" font-size="13" lengthAdjust="spacing" textLength="47.7026" x="59.9998" y="1123.2778">200 OK</text><text fill="#000000" font-family="sans-serif" font-size="13" lengthAdjust="spacing" textLength="8.271" x="59.9998" y="1138.4106">{</text><text fill="#000000" font-family="sans-serif" font-size="13" lengthAdjust="spacing" textLength="146.7642" x="68.2645" y="1153.5435">"access_token": "xxx",</text><text fill="#000000" font-family="sans-serif" font-size="13" lengthAdjust="spacing" textLength="152.4897" x="68.2645" y="1168.6763">"token_type": "Bearer",</text><text fill="#000000" font-family="sans-serif" font-size="13" lengthAdjust="spacing" textLength="123.7095" x="68.2645" y="1183.8091">"expires_in": 3600,</text><text fill="#000000" font-family="sans-serif" font-size="13" lengthAdjust="spacing" textLength="145.1011" x="68.2645" y="1198.9419">"refresh_token": "xxx"</text><text fill="#000000" font-family="sans-serif" font-size="13" lengthAdjust="spacing" textLength="8.271" x="59.9998" y="1214.0747">}</text></g><rect fill="#EEEEEE" height="3" style="stroke:#EEEEEE;stroke-width:1;" width="787.8016" x="0" y="1247.707"/><line style="stroke:#000000;stroke-width:1;" x1="0" x2="787.8016" y1="1247.707" y2="1247.707"/><line style="stroke:#000000;stroke-width:1;" x1="0" x2="787.8016" y1="1250.707" y2="1250.707"/><rect fill="#EEEEEE" height="23.1328" style="stroke:#000000;stroke-width:2;" width="166.3692" x="310.7162" y="1237.1406"/><text fill="#000000" font-family="sans-serif" font-size="13" font-weight="bold" lengthAdjust="spacing" textLength="147.8433" x="316.7162" y="1253.2075">4. &#20351;&#29992; Access Token</text><g class="message" data-entity-1="part1" data-entity-2="part2" id="msg23"><polygon fill="#181818" points="270.4647,1302.5391,280.4647,1306.5391,270.4647,1310.5391,274.4647,1306.5391" style="stroke:#181818;stroke-width:1;"/><line style="stroke:#181818;stroke-width:1;" x1="42.9998" x2="276.4647" y1="1306.5391" y2="1306.5391"/><text fill="#000000" font-family="sans-serif" font-size="13" lengthAdjust="spacing" textLength="115.7495" x="49.9998" y="1286.3403">GET /api/resource</text><text fill="#000000" font-family="sans-serif" font-size="13" lengthAdjust="spacing" textLength="166.3657" x="49.9998" y="1301.4731">Authorization: Bearer xxx</text></g><g class="message" data-entity-1="part2" data-entity-2="part3" id="msg24"><polygon fill="#181818" points="466.5116,1331.6719,476.5116,1335.6719,466.5116,1339.6719,470.5116,1335.6719" style="stroke:#181818;stroke-width:1;"/><line style="stroke:#181818;stroke-width:1;" x1="282.4647" x2="472.5116" y1="1335.6719" y2="1335.6719"/><text fill="#000000" font-family="sans-serif" font-size="13" lengthAdjust="spacing" textLength="146.7324" x="289.4647" y="1330.606">validateAccessToken()</text></g><g class="message" data-entity-1="part3" data-entity-2="part5" id="msg25"><polygon fill="#181818" points="727.4251,1375.9375,737.4251,1379.9375,727.4251,1383.9375,731.4251,1379.9375" style="stroke:#181818;stroke-width:1;"/><line style="stroke:#181818;stroke-width:1;" x1="478.5116" x2="733.4251" y1="1379.9375" y2="1379.9375"/><text fill="#000000" font-family="sans-serif" font-size="13" lengthAdjust="spacing" textLength="236.9136" x="485.5116" y="1359.7388">SELECT * FROM oauth_access_token</text><text fill="#000000" font-family="sans-serif" font-size="13" lengthAdjust="spacing" textLength="165.4009" x="485.5116" y="1374.8716">WHERE access_token = ?</text></g><g class="message" data-entity-1="part5" data-entity-2="part3" id="msg26"><polygon fill="#181818" points="489.5116,1405.0703,479.5116,1409.0703,489.5116,1413.0703,485.5116,1409.0703" style="stroke:#181818;stroke-width:1;"/><line style="stroke:#181818;stroke-width:1;stroke-dasharray:2,2;" x1="483.5116" x2="738.4251" y1="1409.0703" y2="1409.0703"/><text fill="#000000" font-family="sans-serif" font-size="13" lengthAdjust="spacing" textLength="88.5244" x="495.5116" y="1404.0044">Access Token</text></g><g class="message" data-entity-1="part3" data-entity-2="part3" id="msg27"><line style="stroke:#181818;stroke-width:1;" x1="478.5116" x2="520.5116" y1="1453.3359" y2="1453.3359"/><line style="stroke:#181818;stroke-width:1;" x1="520.5116" x2="520.5116" y1="1453.3359" y2="1466.3359"/><line style="stroke:#181818;stroke-width:1;" x1="479.5116" x2="520.5116" y1="1466.3359" y2="1466.3359"/><polygon fill="#181818" points="489.5116,1462.3359,479.5116,1466.3359,489.5116,1470.3359,485.5116,1466.3359" style="stroke:#181818;stroke-width:1;"/><text fill="#000000" font-family="sans-serif" font-size="13" lengthAdjust="spacing" textLength="78.0001" x="485.5116" y="1433.1372">&#39564;&#35777;&#36807;&#26399;&#26102;&#38388;</text><text fill="#000000" font-family="sans-serif" font-size="13" lengthAdjust="spacing" textLength="68.2564" x="485.5116" y="1448.27">&#39564;&#35777; scope</text></g><g class="message" data-entity-1="part2" data-entity-2="part1" id="msg28"><polygon fill="#181818" points="53.9998,1491.4688,43.9998,1495.4688,53.9998,1499.4688,49.9998,1495.4688" style="stroke:#181818;stroke-width:1;"/><line style="stroke:#181818;stroke-width:1;stroke-dasharray:2,2;" x1="47.9998" x2="281.4647" y1="1495.4688" y2="1495.4688"/><text fill="#000000" font-family="sans-serif" font-size="13" lengthAdjust="spacing" textLength="118.8599" x="59.9998" y="1490.4028">200 OK + &#36164;&#28304;&#25968;&#25454;</text></g><?plantuml-src ZLHRJnD157xlhpZP1-ADKi7uqAGI90MDQB5juiicpR0TOMCpsynEeMXyG4qeYI8FN7o050WQOx158rO9of-Xq-qJVy7PcMtPqekyT3ldVEVsdMy66SoYeDNszqz_BV7rtzMZrThgPmsG3KR6n8G5ieWoqp2pY33GnX73SsXU9x6H79k1KOimQcKocCe82mbZQu329J2TDGqiGRRwtmeJDNcX8lqv0GYa4KDJoCQWJLescwOuyNX2UjDJWK0a0ZU3m9SBVEkrKwxmRwyW4WceTg7_Zce3mZ0UJSA0F0ouFnOrd-DXdL1iPorYunIRp-A8OQLndqvKTCfCH_BvV9yBIfiK6ooLewPdiWrBu2b6QPYZ9iC1LKSKz4OI9UjVtZhb1MXc2pHS0fMU4e14T28wceHhC1QFFLITfXHQ9q_kHUFHyrY8m7101FMtLF28LxlnPM_hmJz1Jw2Sgp6C0BWB45x-uMzjxqYnNDyvh6_jIkO7Ww2MfJmkypB0nxlor7PAJccl4qc6u93X4MybY9aM6HLRk7ArSvkrrI8lh7X9jnVEZWkrubU-MUIRItojS7Qyr4Ro_KU9Q3mfFicOJXJ7o5yjvIxTDx4ddJ0CXGOXxl7Mge5XDyGLWYHXA0ZESgNwVXr630FRDYIjPvXqLk5aBD6K8NDXEfccGlHAVkrzkMBqQdNGfNUsiI2HoNuw48ppnWmYqzXbTSoYihbMTYLDlFZHAUysYUqbaYP89_r26UNgoYVdP54iuVnShNm__NCYjD5hYoryzGJ6yLDnKMVQaHStx5qY91Eds2NXLANlWkVRYqxfe3dq-MWTD3CO2a7iWKvUw0H0yxUXXK4J6z9kI8yqoQMxzhiOKV5gAXVEPuNGx9JfXWpT3eMKkQN7HZATl9GIl1K4rTCb92WVGfGr1qGwAqSDh9EMsnS6rGvqqTCiofXfzyhAIjtarEbfyzFHUE3yjivltFz5ebIf9CWtVjOtVkYaotDsOL5m7Pp3D_neXQyTy7UbVm00?></g></svg>