<?plantuml 1.2026.3beta3?><svg xmlns="http://www.w3.org/2000/svg" xmlns:xlink="http://www.w3.org/1999/xlink" contentStyleType="text/css" data-diagram-type="SEQUENCE" height="899px" preserveAspectRatio="none" style="width:974px;height:899px;background:#FFFFFF;" version="1.1" viewBox="0 0 974 899" width="974px" zoomAndPan="magnify"><defs/><g><rect fill="none" height="119.3359" style="stroke:#000000;stroke-width:1.5;" width="527.6706" x="430.9405" y="535.2891"/><g class="participant-lifeline" data-entity-uid="part1" data-qualified-name="user" id="part1-lifeline"><g><title>..</title><rect fill="#000000" fill-opacity="0.00000" height="735.9922" width="8" x="17.9999" y="81.2969"/><line style="stroke:#181818;stroke-width:0.5;stroke-dasharray:5,5;" x1="21" x2="21" y1="81.2969" y2="817.2891"/></g></g><g class="participant-lifeline" data-entity-uid="part2" data-qualified-name="frontend" id="part2-lifeline"><g><title>..</title><rect fill="#000000" fill-opacity="0.00000" height="735.9922" width="8" x="147.314" y="81.2969"/><line style="stroke:#181818;stroke-width:0.5;stroke-dasharray:5,5;" x1="150.314" x2="150.314" y1="81.2969" y2="817.2891"/></g></g><g class="participant-lifeline" data-entity-uid="part3" data-qualified-name="gateway" id="part3-lifeline"><g><title>Gateway</title><rect fill="#000000" fill-opacity="0.00000" height="735.9922" width="8" x="329.4658" y="81.2969"/><line style="stroke:#181818;stroke-width:0.5;stroke-dasharray:5,5;" x1="332.5435" x2="332.5435" y1="81.2969" y2="817.2891"/></g></g><g class="participant-lifeline" data-entity-uid="part4" data-qualified-name="better_auth" id="part4-lifeline"><g><title>Better Auth</title><rect fill="#000000" fill-opacity="0.00000" height="735.9922" width="8" x="484.3546" y="81.2969"/><line style="stroke:#181818;stroke-width:0.5;stroke-dasharray:5,5;" x1="487.9405" x2="487.9405" y1="81.2969" y2="817.2891"/></g></g><g class="participant-lifeline" data-entity-uid="part5" data-qualified-name="github" id="part5-lifeline"><g><title>GitHub OAuth</title><rect fill="#000000" fill-opacity="0.00000" height="735.9922" width="8" x="691.2242" y="81.2969"/><line style="stroke:#181818;stroke-width:0.5;stroke-dasharray:5,5;" x1="694.8258" x2="694.8258" y1="81.2969" y2="817.2891"/></g></g><g class="participant-lifeline" data-entity-uid="part6" data-qualified-name="adapter" id="part6-lifeline"><g><title>MikroORM</title><rect fill="#000000" fill-opacity="0.00000" height="735.9922" width="8" x="799.2345" y="81.2969"/><line style="stroke:#181818;stroke-width:0.5;stroke-dasharray:5,5;" x1="802.6227" x2="802.6227" y1="81.2969" y2="817.2891"/></g></g><g class="participant-lifeline" data-entity-uid="part7" data-qualified-name="db" id="part7-lifeline"><g><title>PostgreSQL</title><rect fill="#000000" fill-opacity="0.00000" height="735.9922" width="8" x="901.2346" y="81.2969"/><line style="stroke:#181818;stroke-width:0.5;stroke-dasharray:5,5;" x1="904.8581" x2="904.8581" y1="81.2969" y2="817.2891"/></g></g><g class="participant participant-head" data-entity-uid="part1" data-qualified-name="user" id="part1-head"><text fill="#000000" font-family="sans-serif" font-size="14" lengthAdjust="spacing" textLength="27.9999" x="5" y="77.9951">&#29992;&#25143;</text><ellipse cx="21.9999" cy="13.5" fill="#E2E2F0" rx="8" ry="8" style="stroke:#181818;stroke-width:0.5;"/><path d="M21.9999,21.5 L21.9999,48.5 M8.9999,29.5 L34.9999,29.5 M21.9999,48.5 L8.9999,63.5 M21.9999,48.5 L34.9999,63.5" fill="none" style="stroke:#181818;stroke-width:0.5;"/></g><g class="participant participant-tail" data-entity-uid="part1" data-qualified-name="user" id="part1-tail"><text fill="#000000" font-family="sans-serif" font-size="14" lengthAdjust="spacing" textLength="27.9999" x="5" y="829.2842">&#29992;&#25143;</text><ellipse cx="21.9999" cy="841.0859" fill="#E2E2F0" rx="8" ry="8" style="stroke:#181818;stroke-width:0.5;"/><path d="M21.9999,849.0859 L21.9999,876.0859 M8.9999,857.0859 L34.9999,857.0859 M21.9999,876.0859 L8.9999,891.0859 M21.9999,876.0859 L34.9999,891.0859" fill="none" style="stroke:#181818;stroke-width:0.5;"/></g><g class="participant participant-head" data-entity-uid="part2" data-qualified-name="frontend" id="part2-head"><rect fill="#E2E2F0" height="30.2969" rx="2.5" ry="2.5" style="stroke:#181818;stroke-width:0.5;" width="41.9999" x="130.314" y="50"/><text fill="#000000" font-family="sans-serif" font-size="14" lengthAdjust="spacing" textLength="27.9999" x="137.314" y="69.9951">&#21069;&#31471;</text></g><g class="participant participant-tail" data-entity-uid="part2" data-qualified-name="frontend" id="part2-tail"><rect fill="#E2E2F0" height="30.2969" rx="2.5" ry="2.5" style="stroke:#181818;stroke-width:0.5;" width="41.9999" x="130.314" y="816.2891"/><text fill="#000000" font-family="sans-serif" font-size="14" lengthAdjust="spacing" textLength="27.9999" x="137.314" y="836.2842">&#21069;&#31471;</text></g><g class="participant participant-head" data-entity-uid="part3" data-qualified-name="gateway" id="part3-head"><rect fill="#E2E2F0" height="30.2969" rx="2.5" ry="2.5" style="stroke:#181818;stroke-width:0.5;" width="75.8447" x="295.5435" y="50"/><text fill="#000000" font-family="sans-serif" font-size="14" lengthAdjust="spacing" textLength="61.8447" x="302.5435" y="69.9951">Gateway</text></g><g class="participant participant-tail" data-entity-uid="part3" data-qualified-name="gateway" id="part3-tail"><rect fill="#E2E2F0" height="30.2969" rx="2.5" ry="2.5" style="stroke:#181818;stroke-width:0.5;" width="75.8447" x="295.5435" y="816.2891"/><text fill="#000000" font-family="sans-serif" font-size="14" lengthAdjust="spacing" textLength="61.8447" x="302.5435" y="836.2842">Gateway</text></g><g class="participant participant-head" data-entity-uid="part4" data-qualified-name="better_auth" id="part4-head"><rect fill="#E2E2F0" height="30.2969" rx="2.5" ry="2.5" style="stroke:#181818;stroke-width:0.5;" width="94.8281" x="440.9405" y="50"/><text fill="#000000" font-family="sans-serif" font-size="14" lengthAdjust="spacing" textLength="80.8281" x="447.9405" y="69.9951">Better Auth</text></g><g class="participant participant-tail" data-entity-uid="part4" data-qualified-name="better_auth" id="part4-tail"><rect fill="#E2E2F0" height="30.2969" rx="2.5" ry="2.5" style="stroke:#181818;stroke-width:0.5;" width="94.8281" x="440.9405" y="816.2891"/><text fill="#000000" font-family="sans-serif" font-size="14" lengthAdjust="spacing" textLength="80.8281" x="447.9405" y="836.2842">Better Auth</text></g><g class="participant participant-head" data-entity-uid="part5" data-qualified-name="github" id="part5-head"><rect fill="#E2E2F0" height="30.2969" rx="2.5" ry="2.5" style="stroke:#181818;stroke-width:0.5;" width="110.7969" x="639.8258" y="50"/><text fill="#000000" font-family="sans-serif" font-size="14" lengthAdjust="spacing" textLength="96.7969" x="646.8258" y="69.9951">GitHub OAuth</text></g><g class="participant participant-tail" data-entity-uid="part5" data-qualified-name="github" id="part5-tail"><rect fill="#E2E2F0" height="30.2969" rx="2.5" ry="2.5" style="stroke:#181818;stroke-width:0.5;" width="110.7969" x="639.8258" y="816.2891"/><text fill="#000000" font-family="sans-serif" font-size="14" lengthAdjust="spacing" textLength="96.7969" x="646.8258" y="836.2842">GitHub OAuth</text></g><g class="participant participant-head" data-entity-uid="part6" data-qualified-name="adapter" id="part6-head"><rect fill="#E2E2F0" height="46.5938" rx="2.5" ry="2.5" style="stroke:#181818;stroke-width:0.5;" width="85.2236" x="760.6227" y="33.7031"/><text fill="#000000" font-family="sans-serif" font-size="14" lengthAdjust="spacing" textLength="71.2236" x="767.6227" y="53.6982">MikroORM</text><text fill="#000000" font-family="sans-serif" font-size="14" lengthAdjust="spacing" textLength="55.7881" x="775.3405" y="69.9951">Adapter</text></g><g class="participant participant-tail" data-entity-uid="part6" data-qualified-name="adapter" id="part6-tail"><rect fill="#E2E2F0" height="46.5938" rx="2.5" ry="2.5" style="stroke:#181818;stroke-width:0.5;" width="85.2236" x="760.6227" y="816.2891"/><text fill="#000000" font-family="sans-serif" font-size="14" lengthAdjust="spacing" textLength="71.2236" x="767.6227" y="836.2842">MikroORM</text><text fill="#000000" font-family="sans-serif" font-size="14" lengthAdjust="spacing" textLength="55.7881" x="775.3405" y="852.5811">Adapter</text></g><g class="participant participant-head" data-entity-uid="part7" data-qualified-name="db" id="part7-head"><text fill="#000000" font-family="sans-serif" font-size="14" lengthAdjust="spacing" textLength="80.7529" x="861.8581" y="77.9951">PostgreSQL</text><path d="M887.2346,29 C887.2346,19 905.2346,19 905.2346,19 C905.2346,19 923.2346,19 923.2346,29 L923.2346,55 C923.2346,65 905.2346,65 905.2346,65 C905.2346,65 887.2346,65 887.2346,55 L887.2346,29" fill="#E2E2F0" style="stroke:#181818;stroke-width:0.5;"/><path d="M887.2346,29 C887.2346,39 905.2346,39 905.2346,39 C905.2346,39 923.2346,39 923.2346,29" fill="none" style="stroke:#181818;stroke-width:0.5;"/></g><g class="participant participant-tail" data-entity-uid="part7" data-qualified-name="db" id="part7-tail"><text fill="#000000" font-family="sans-serif" font-size="14" lengthAdjust="spacing" textLength="80.7529" x="861.8581" y="829.2842">PostgreSQL</text><path d="M887.2346,842.5859 C887.2346,832.5859 905.2346,832.5859 905.2346,832.5859 C905.2346,832.5859 923.2346,832.5859 923.2346,842.5859 L923.2346,868.5859 C923.2346,878.5859 905.2346,878.5859 905.2346,878.5859 C905.2346,878.5859 887.2346,878.5859 887.2346,868.5859 L887.2346,842.5859" fill="#E2E2F0" style="stroke:#181818;stroke-width:0.5;"/><path d="M887.2346,842.5859 C887.2346,852.5859 905.2346,852.5859 905.2346,852.5859 C905.2346,852.5859 923.2346,852.5859 923.2346,842.5859" fill="none" style="stroke:#181818;stroke-width:0.5;"/></g><g class="message" data-entity-1="part1" data-entity-2="part2" id="msg1"><polygon fill="#181818" points="139.314,108.4297,149.314,112.4297,139.314,116.4297,143.314,112.4297" style="stroke:#181818;stroke-width:1;"/><line style="stroke:#181818;stroke-width:1;" x1="21.9999" x2="145.314" y1="112.4297" y2="112.4297"/><text fill="#000000" font-family="sans-serif" font-size="13" lengthAdjust="spacing" textLength="105.314" x="28.9999" y="107.3638">&#28857;&#20987; GitHub &#30331;&#24405;</text></g><g class="message" data-entity-1="part2" data-entity-2="part3" id="msg2"><polygon fill="#181818" points="321.4658,137.5625,331.4658,141.5625,321.4658,145.5625,325.4658,141.5625" style="stroke:#181818;stroke-width:1;"/><line style="stroke:#181818;stroke-width:1;" x1="151.314" x2="327.4658" y1="141.5625" y2="141.5625"/><text fill="#000000" font-family="sans-serif" font-size="13" lengthAdjust="spacing" textLength="158.1519" x="158.314" y="136.4966">GET /auth/sign-in/github</text></g><g class="message" data-entity-1="part3" data-entity-2="part4" id="msg3"><polygon fill="#181818" points="476.3546,166.6953,486.3546,170.6953,476.3546,174.6953,480.3546,170.6953" style="stroke:#181818;stroke-width:1;"/><line style="stroke:#181818;stroke-width:1;" x1="333.4658" x2="482.3546" y1="170.6953" y2="170.6953"/><text fill="#000000" font-family="sans-serif" font-size="13" lengthAdjust="spacing" textLength="130.8887" x="340.4658" y="165.6294">&#33719;&#21462; OAuth &#25480;&#26435; URL</text></g><g class="message" data-entity-1="part4" data-entity-2="part3" id="msg4"><polygon fill="#181818" points="344.4658,195.8281,334.4658,199.8281,344.4658,203.8281,340.4658,199.8281" style="stroke:#181818;stroke-width:1;"/><line style="stroke:#181818;stroke-width:1;stroke-dasharray:2,2;" x1="338.4658" x2="487.3546" y1="199.8281" y2="199.8281"/><text fill="#000000" font-family="sans-serif" font-size="13" lengthAdjust="spacing" textLength="101.1817" x="350.4658" y="194.7622">&#37325;&#23450;&#21521;&#21040; GitHub</text></g><g class="message" data-entity-1="part3" data-entity-2="part2" id="msg5"><polygon fill="#181818" points="162.314,224.9609,152.314,228.9609,162.314,232.9609,158.314,228.9609" style="stroke:#181818;stroke-width:1;"/><line style="stroke:#181818;stroke-width:1;stroke-dasharray:2,2;" x1="156.314" x2="332.4658" y1="228.9609" y2="228.9609"/><text fill="#000000" font-family="sans-serif" font-size="13" lengthAdjust="spacing" textLength="83.4272" x="168.314" y="223.895">302 Redirect</text></g><g class="message" data-entity-1="part2" data-entity-2="part5" id="msg6"><polygon fill="#181818" points="683.2242,254.0938,693.2242,258.0938,683.2242,262.0938,687.2242,258.0938" style="stroke:#181818;stroke-width:1;"/><line style="stroke:#181818;stroke-width:1;" x1="151.314" x2="689.2242" y1="258.0938" y2="258.0938"/><text fill="#000000" font-family="sans-serif" font-size="13" lengthAdjust="spacing" textLength="52.0001" x="158.314" y="253.0278">&#25480;&#26435;&#39029;&#38754;</text></g><g class="message" data-entity-1="part1" data-entity-2="part5" id="msg7"><polygon fill="#181818" points="683.2242,283.2266,693.2242,287.2266,683.2242,291.2266,687.2242,287.2266" style="stroke:#181818;stroke-width:1;"/><line style="stroke:#181818;stroke-width:1;" x1="21.9999" x2="689.2242" y1="287.2266" y2="287.2266"/><text fill="#000000" font-family="sans-serif" font-size="13" lengthAdjust="spacing" textLength="52.0001" x="28.9999" y="282.1606">&#25480;&#26435;&#30830;&#35748;</text></g><g class="message" data-entity-1="part5" data-entity-2="part3" id="msg8"><polygon fill="#181818" points="344.4658,312.3594,334.4658,316.3594,344.4658,320.3594,340.4658,316.3594" style="stroke:#181818;stroke-width:1;"/><line style="stroke:#181818;stroke-width:1;" x1="338.4658" x2="694.2242" y1="316.3594" y2="316.3594"/><text fill="#000000" font-family="sans-serif" font-size="13" lengthAdjust="spacing" textLength="240.189" x="350.4658" y="311.2935">GET /auth/callback/github?code=xxx</text></g><g class="message" data-entity-1="part3" data-entity-2="part4" id="msg9"><polygon fill="#181818" points="476.3546,341.4922,486.3546,345.4922,476.3546,349.4922,480.3546,345.4922" style="stroke:#181818;stroke-width:1;"/><line style="stroke:#181818;stroke-width:1;" x1="333.4658" x2="482.3546" y1="345.4922" y2="345.4922"/><text fill="#000000" font-family="sans-serif" font-size="13" lengthAdjust="spacing" textLength="100.9659" x="340.4658" y="340.4263">&#22788;&#29702; OAuth &#22238;&#35843;</text></g><g class="message" data-entity-1="part4" data-entity-2="part5" id="msg10"><polygon fill="#181818" points="683.2242,370.625,693.2242,374.625,683.2242,378.625,687.2242,374.625" style="stroke:#181818;stroke-width:1;"/><line style="stroke:#181818;stroke-width:1;" x1="488.3546" x2="689.2242" y1="374.625" y2="374.625"/><text fill="#000000" font-family="sans-serif" font-size="13" lengthAdjust="spacing" textLength="182.8697" x="495.3546" y="369.5591">&#20132;&#25442; code &#33719;&#21462; access_token</text></g><g class="message" data-entity-1="part5" data-entity-2="part4" id="msg11"><polygon fill="#181818" points="499.3546,399.7578,489.3546,403.7578,499.3546,407.7578,495.3546,403.7578" style="stroke:#181818;stroke-width:1;"/><line style="stroke:#181818;stroke-width:1;stroke-dasharray:2,2;" x1="493.3546" x2="694.2242" y1="403.7578" y2="403.7578"/><text fill="#000000" font-family="sans-serif" font-size="13" lengthAdjust="spacing" textLength="88.5244" x="505.3546" y="398.6919">Access Token</text></g><g class="message" data-entity-1="part4" data-entity-2="part5" id="msg12"><polygon fill="#181818" points="683.2242,428.8906,693.2242,432.8906,683.2242,436.8906,687.2242,432.8906" style="stroke:#181818;stroke-width:1;"/><line style="stroke:#181818;stroke-width:1;" x1="488.3546" x2="689.2242" y1="432.8906" y2="432.8906"/><text fill="#000000" font-family="sans-serif" font-size="13" lengthAdjust="spacing" textLength="78.0001" x="495.3546" y="427.8247">&#33719;&#21462;&#29992;&#25143;&#20449;&#24687;</text></g><g class="message" data-entity-1="part5" data-entity-2="part4" id="msg13"><polygon fill="#181818" points="499.3546,458.0234,489.3546,462.0234,499.3546,466.0234,495.3546,462.0234" style="stroke:#181818;stroke-width:1;"/><line style="stroke:#181818;stroke-width:1;stroke-dasharray:2,2;" x1="493.3546" x2="694.2242" y1="462.0234" y2="462.0234"/><text fill="#000000" font-family="sans-serif" font-size="13" lengthAdjust="spacing" textLength="74.6992" x="505.3546" y="456.9575">User Profile</text></g><g class="message" data-entity-1="part4" data-entity-2="part6" id="msg14"><polygon fill="#181818" points="791.2345,487.1563,801.2345,491.1563,791.2345,495.1563,795.2345,491.1563" style="stroke:#181818;stroke-width:1;"/><line style="stroke:#181818;stroke-width:1;" x1="488.3546" x2="797.2345" y1="491.1563" y2="491.1563"/><text fill="#000000" font-family="sans-serif" font-size="13" lengthAdjust="spacing" textLength="226.167" x="495.3546" y="486.0903">findOne({ where: { providerId } })</text></g><g class="message" data-entity-1="part6" data-entity-2="part7" id="msg15"><polygon fill="#181818" points="893.2346,516.2891,903.2346,520.2891,893.2346,524.2891,897.2346,520.2891" style="stroke:#181818;stroke-width:1;"/><line style="stroke:#181818;stroke-width:1;" x1="803.2345" x2="899.2346" y1="520.2891" y2="520.2891"/><text fill="#000000" font-family="sans-serif" font-size="13" lengthAdjust="spacing" textLength="52.0001" x="810.2345" y="515.2231">&#26597;&#35810;&#36134;&#25143;</text></g><path d="M430.9405,535.2891 L495.3834,535.2891 L495.3834,542.4219 L485.3834,552.4219 L430.9405,552.4219 L430.9405,535.2891" fill="#EEEEEE" style="stroke:#000000;stroke-width:1.5;"/><rect fill="none" height="119.3359" style="stroke:#000000;stroke-width:1.5;" width="527.6706" x="430.9405" y="535.2891"/><text fill="#000000" font-family="sans-serif" font-size="13" font-weight="bold" lengthAdjust="spacing" textLength="19.4429" x="445.9405" y="548.356">alt</text><text fill="#000000" font-family="sans-serif" font-size="11" font-weight="bold" lengthAdjust="spacing" textLength="65.0543" x="510.3834" y="547.4995">[&#29992;&#25143;&#19981;&#23384;&#22312;]</text><g class="message" data-entity-1="part6" data-entity-2="part7" id="msg16"><polygon fill="#181818" points="893.2346,569.5547,903.2346,573.5547,893.2346,577.5547,897.2346,573.5547" style="stroke:#181818;stroke-width:1;"/><line style="stroke:#181818;stroke-width:1;" x1="803.2345" x2="899.2346" y1="573.5547" y2="573.5547"/><text fill="#000000" font-family="sans-serif" font-size="13" lengthAdjust="spacing" textLength="65.0001" x="810.2345" y="568.4888">&#21019;&#24314;&#26032;&#29992;&#25143;</text></g><g class="message" data-entity-1="part6" data-entity-2="part7" id="msg17"><polygon fill="#181818" points="893.2346,598.6875,903.2346,602.6875,893.2346,606.6875,897.2346,602.6875" style="stroke:#181818;stroke-width:1;"/><line style="stroke:#181818;stroke-width:1;" x1="803.2345" x2="899.2346" y1="602.6875" y2="602.6875"/><text fill="#000000" font-family="sans-serif" font-size="13" lengthAdjust="spacing" textLength="78.0001" x="810.2345" y="597.6216">&#21019;&#24314;&#36134;&#25143;&#20851;&#32852;</text></g><line style="stroke:#000000;stroke-width:1;stroke-dasharray:2,2;" x1="430.9405" x2="958.6111" y1="611.6875" y2="611.6875"/><text fill="#000000" font-family="sans-serif" font-size="11" font-weight="bold" lengthAdjust="spacing" textLength="65.0543" x="435.9405" y="621.8979">[&#29992;&#25143;&#24050;&#23384;&#22312;]</text><g class="message" data-entity-1="part6" data-entity-2="part4" id="msg18"><polygon fill="#181818" points="499.3546,642.625,489.3546,646.625,499.3546,650.625,495.3546,646.625" style="stroke:#181818;stroke-width:1;"/><line style="stroke:#181818;stroke-width:1;stroke-dasharray:2,2;" x1="493.3546" x2="802.2345" y1="646.625" y2="646.625"/><text fill="#000000" font-family="sans-serif" font-size="13" lengthAdjust="spacing" textLength="52.0001" x="505.3546" y="641.5591">&#36820;&#22238;&#29992;&#25143;</text></g><g class="message" data-entity-1="part4" data-entity-2="part6" id="msg19"><polygon fill="#181818" points="791.2345,678.7578,801.2345,682.7578,791.2345,686.7578,795.2345,682.7578" style="stroke:#181818;stroke-width:1;"/><line style="stroke:#181818;stroke-width:1;" x1="488.3546" x2="797.2345" y1="682.7578" y2="682.7578"/><text fill="#000000" font-family="sans-serif" font-size="13" lengthAdjust="spacing" textLength="185.5737" x="495.3546" y="677.6919">create({ model: "session" })</text></g><g class="message" data-entity-1="part6" data-entity-2="part7" id="msg20"><polygon fill="#181818" points="893.2346,707.8906,903.2346,711.8906,893.2346,715.8906,897.2346,711.8906" style="stroke:#181818;stroke-width:1;"/><line style="stroke:#181818;stroke-width:1;" x1="803.2345" x2="899.2346" y1="711.8906" y2="711.8906"/><text fill="#000000" font-family="sans-serif" font-size="13" lengthAdjust="spacing" textLength="52.0001" x="810.2345" y="706.8247">&#21019;&#24314;&#20250;&#35805;</text></g><g class="message" data-entity-1="part4" data-entity-2="part3" id="msg21"><polygon fill="#181818" points="344.4658,737.0234,334.4658,741.0234,344.4658,745.0234,340.4658,741.0234" style="stroke:#181818;stroke-width:1;"/><line style="stroke:#181818;stroke-width:1;stroke-dasharray:2,2;" x1="338.4658" x2="487.3546" y1="741.0234" y2="741.0234"/><text fill="#000000" font-family="sans-serif" font-size="13" lengthAdjust="spacing" textLength="108.418" x="350.4658" y="735.9575">Session + Token</text></g><g class="message" data-entity-1="part3" data-entity-2="part2" id="msg22"><polygon fill="#181818" points="162.314,766.1563,152.314,770.1563,162.314,774.1563,158.314,770.1563" style="stroke:#181818;stroke-width:1;"/><line style="stroke:#181818;stroke-width:1;stroke-dasharray:2,2;" x1="156.314" x2="332.4658" y1="770.1563" y2="770.1563"/><text fill="#000000" font-family="sans-serif" font-size="13" lengthAdjust="spacing" textLength="146.707" x="168.314" y="765.0903">302 Redirect + Cookie</text></g><g class="message" data-entity-1="part2" data-entity-2="part1" id="msg23"><polygon fill="#181818" points="32.9999,795.2891,22.9999,799.2891,32.9999,803.2891,28.9999,799.2891" style="stroke:#181818;stroke-width:1;"/><line style="stroke:#181818;stroke-width:1;stroke-dasharray:2,2;" x1="26.9999" x2="150.314" y1="799.2891" y2="799.2891"/><text fill="#000000" font-family="sans-serif" font-size="13" lengthAdjust="spacing" textLength="52.0001" x="38.9999" y="794.2231">&#30331;&#24405;&#25104;&#21151;</text></g><?plantuml-src ZPFlQzD06CVVvwzuw2j5IaNV5LIgo1GsDhljdJ0koRKz6fDokRhAs8ivtQhGMQ4EtQoZfSf0R8i_gAxA_fbUaluNNf9hRRfrc5T9xdFVv_kzvpcaCOk2MpjsoZr0DXHjJ9K2eenef81C1Z7-ek9-xiJynGorJ8PDFGhC8ORNqPE0o8RlKU0sPWnJI1LPBe3Ku7iDYUyf9SBk5LLO79DPmd95DGeja3or5jCB3ysKZWf2A21H-AxeY24LsHXYIvRDiXGlFvWF05rL53ySn6-ESq0ItAU_-6uVP6NtNP__UQECrmKh4mbqxkuA97pJ2PjapJWn4zBU217qH3InmzlhyLVxOHvmzifEVHjMq_FA91MFr1ZkLdZxW5TVyt9Ncled7tL-_UerI6ETKAongEF0bI32YiF6Zs6zESu-jUessbwxfSY_C_9go31KfELbu5kQfUCRfL9fTdBUUkPMTsHoVlZ1wsv7KqyO6Poqd4eJVD7HYI5DmxQzngmyDiVUpXH91HIi1DGizL0n7F31QSFPwimMNFNFQ8bQ6MBWQK4vO8BA45DVDF6b3LZFOOgJi045QZqcEgRtTTY4pSlA21RxzE2iZpvwdQRt_PCmeI23oGit-5dXNzxozySAY6Tw4oyVylw9izyDuGkOK9W__-PjrHHiYEaFj_3Ur_FqpyxfQKtqI9Rnx_VCx1h5ekKY-YFHBIC9CLjqW5XcxBpKeRd1xmElKxzWvfT32RWYE_aVyoxOEvQL9tXYy0KTp7XItcAdNEKlZ_u2?></g></svg>