<?plantuml 1.2026.3beta3?><svg xmlns="http://www.w3.org/2000/svg" xmlns:xlink="http://www.w3.org/1999/xlink" contentStyleType="text/css" data-diagram-type="SEQUENCE" height="877px" preserveAspectRatio="none" style="width:898px;height:877px;background:#FFFFFF;" version="1.1" viewBox="0 0 898 877" width="898px" zoomAndPan="magnify"><defs/><g><rect fill="none" height="235.8672" style="stroke:#000000;stroke-width:1.5;" width="872.6357" x="10" y="447.0234"/><g class="participant-lifeline" data-entity-uid="part1" data-qualified-name="client" id="part1-lifeline"><g><title>...</title><rect fill="#000000" fill-opacity="0.00000" height="714.2578" width="8" x="39.9999" y="81.2969"/><line style="stroke:#181818;stroke-width:0.5;stroke-dasharray:5,5;" x1="43" x2="43" y1="81.2969" y2="795.5547"/></g></g><g class="participant-lifeline" data-entity-uid="part2" data-qualified-name="gateway" id="part2-lifeline"><g><title>Gateway</title><rect fill="#000000" fill-opacity="0.00000" height="714.2578" width="8" x="220.3363" y="81.2969"/><line style="stroke:#181818;stroke-width:0.5;stroke-dasharray:5,5;" x1="223.414" x2="223.414" y1="81.2969" y2="795.5547"/></g></g><g class="participant-lifeline" data-entity-uid="part3" data-qualified-name="guard" id="part3-lifeline"><g><title>API Key Guard</title><rect fill="#000000" fill-opacity="0.00000" height="714.2578" width="8" x="331.3373" y="81.2969"/><line style="stroke:#181818;stroke-width:0.5;stroke-dasharray:5,5;" x1="335.3017" x2="335.3017" y1="81.2969" y2="795.5547"/></g></g><g class="participant-lifeline" data-entity-uid="part4" data-qualified-name="service" id="part4-lifeline"><g><title>API Key Service</title><rect fill="#000000" fill-opacity="0.00000" height="714.2578" width="8" x="485.8705" y="81.2969"/><line style="stroke:#181818;stroke-width:0.5;stroke-dasharray:5,5;" x1="489.4359" x2="489.4359" y1="81.2969" y2="795.5547"/></g></g><g class="participant-lifeline" data-entity-uid="part5" data-qualified-name="db" id="part5-lifeline"><g><title>PostgreSQL</title><rect fill="#000000" fill-opacity="0.00000" height="714.2578" width="8" x="770.8481" y="81.2969"/><line style="stroke:#181818;stroke-width:0.5;stroke-dasharray:5,5;" x1="774.4716" x2="774.4716" y1="81.2969" y2="795.5547"/></g></g><g class="participant-lifeline" data-entity-uid="part6" data-qualified-name="redis" id="part6-lifeline"><g><title>Redis</title><rect fill="#000000" fill-opacity="0.00000" height="714.2578" width="8" x="846.4301" y="81.2969"/><line style="stroke:#181818;stroke-width:0.5;stroke-dasharray:5,5;" x1="850.2245" x2="850.2245" y1="81.2969" y2="795.5547"/></g></g><g class="participant participant-head" data-entity-uid="part1" data-qualified-name="client" id="part1-head"><text fill="#000000" font-family="sans-serif" font-size="14" lengthAdjust="spacing" textLength="41.9998" x="20" y="77.9951">&#23458;&#25143;&#31471;</text><ellipse cx="43.9999" cy="13.5" fill="#E2E2F0" rx="8" ry="8" style="stroke:#181818;stroke-width:0.5;"/><path d="M43.9999,21.5 L43.9999,48.5 M30.9999,29.5 L56.9999,29.5 M43.9999,48.5 L30.9999,63.5 M43.9999,48.5 L56.9999,63.5" fill="none" style="stroke:#181818;stroke-width:0.5;"/></g><g class="participant participant-tail" data-entity-uid="part1" data-qualified-name="client" id="part1-tail"><text fill="#000000" font-family="sans-serif" font-size="14" lengthAdjust="spacing" textLength="41.9998" x="20" y="807.5498">&#23458;&#25143;&#31471;</text><ellipse cx="43.9999" cy="819.3516" fill="#E2E2F0" rx="8" ry="8" style="stroke:#181818;stroke-width:0.5;"/><path d="M43.9999,827.3516 L43.9999,854.3516 M30.9999,835.3516 L56.9999,835.3516 M43.9999,854.3516 L30.9999,869.3516 M43.9999,854.3516 L56.9999,869.3516" fill="none" style="stroke:#181818;stroke-width:0.5;"/></g><g class="participant participant-head" data-entity-uid="part2" data-qualified-name="gateway" id="part2-head"><rect fill="#E2E2F0" height="30.2969" rx="2.5" ry="2.5" style="stroke:#181818;stroke-width:0.5;" width="75.8447" x="186.414" y="50"/><text fill="#000000" font-family="sans-serif" font-size="14" lengthAdjust="spacing" textLength="61.8447" x="193.414" y="69.9951">Gateway</text></g><g class="participant participant-tail" data-entity-uid="part2" data-qualified-name="gateway" id="part2-tail"><rect fill="#E2E2F0" height="30.2969" rx="2.5" ry="2.5" style="stroke:#181818;stroke-width:0.5;" width="75.8447" x="186.414" y="794.5547"/><text fill="#000000" font-family="sans-serif" font-size="14" lengthAdjust="spacing" textLength="61.8447" x="193.414" y="814.5498">Gateway</text></g><g class="participant participant-head" data-entity-uid="part3" data-qualified-name="guard" id="part3-head"><rect fill="#E2E2F0" height="30.2969" rx="2.5" ry="2.5" style="stroke:#181818;stroke-width:0.5;" width="114.0713" x="278.3017" y="50"/><text fill="#000000" font-family="sans-serif" font-size="14" lengthAdjust="spacing" textLength="100.0713" x="285.3017" y="69.9951">API Key Guard</text></g><g class="participant participant-tail" data-entity-uid="part3" data-qualified-name="guard" id="part3-tail"><rect fill="#E2E2F0" height="30.2969" rx="2.5" ry="2.5" style="stroke:#181818;stroke-width:0.5;" width="114.0713" x="278.3017" y="794.5547"/><text fill="#000000" font-family="sans-serif" font-size="14" lengthAdjust="spacing" textLength="100.0713" x="285.3017" y="814.5498">API Key Guard</text></g><g class="participant participant-head" data-entity-uid="part4" data-qualified-name="service" id="part4-head"><rect fill="#E2E2F0" height="30.2969" rx="2.5" ry="2.5" style="stroke:#181818;stroke-width:0.5;" width="122.8691" x="428.4359" y="50"/><text fill="#000000" font-family="sans-serif" font-size="14" lengthAdjust="spacing" textLength="108.8691" x="435.4359" y="69.9951">API Key Service</text></g><g class="participant participant-tail" data-entity-uid="part4" data-qualified-name="service" id="part4-tail"><rect fill="#E2E2F0" height="30.2969" rx="2.5" ry="2.5" style="stroke:#181818;stroke-width:0.5;" width="122.8691" x="428.4359" y="794.5547"/><text fill="#000000" font-family="sans-serif" font-size="14" lengthAdjust="spacing" textLength="108.8691" x="435.4359" y="814.5498">API Key Service</text></g><g class="participant participant-head" data-entity-uid="part5" data-qualified-name="db" id="part5-head"><text fill="#000000" font-family="sans-serif" font-size="14" lengthAdjust="spacing" textLength="80.7529" x="731.4716" y="77.9951">PostgreSQL</text><path d="M756.8481,29 C756.8481,19 774.8481,19 774.8481,19 C774.8481,19 792.8481,19 792.8481,29 L792.8481,55 C792.8481,65 774.8481,65 774.8481,65 C774.8481,65 756.8481,65 756.8481,55 L756.8481,29" fill="#E2E2F0" style="stroke:#181818;stroke-width:0.5;"/><path d="M756.8481,29 C756.8481,39 774.8481,39 774.8481,39 C774.8481,39 792.8481,39 792.8481,29" fill="none" style="stroke:#181818;stroke-width:0.5;"/></g><g class="participant participant-tail" data-entity-uid="part5" data-qualified-name="db" id="part5-tail"><text fill="#000000" font-family="sans-serif" font-size="14" lengthAdjust="spacing" textLength="80.7529" x="731.4716" y="807.5498">PostgreSQL</text><path d="M756.8481,820.8516 C756.8481,810.8516 774.8481,810.8516 774.8481,810.8516 C774.8481,810.8516 792.8481,810.8516 792.8481,820.8516 L792.8481,846.8516 C792.8481,856.8516 774.8481,856.8516 774.8481,856.8516 C774.8481,856.8516 756.8481,856.8516 756.8481,846.8516 L756.8481,820.8516" fill="#E2E2F0" style="stroke:#181818;stroke-width:0.5;"/><path d="M756.8481,820.8516 C756.8481,830.8516 774.8481,830.8516 774.8481,830.8516 C774.8481,830.8516 792.8481,830.8516 792.8481,820.8516" fill="none" style="stroke:#181818;stroke-width:0.5;"/></g><g class="participant participant-head" data-entity-uid="part6" data-qualified-name="redis" id="part6-head"><text fill="#000000" font-family="sans-serif" font-size="14" lengthAdjust="spacing" textLength="38.4111" x="828.2245" y="77.9951">Redis</text><path d="M832.4301,29 C832.4301,19 850.4301,19 850.4301,19 C850.4301,19 868.4301,19 868.4301,29 L868.4301,55 C868.4301,65 850.4301,65 850.4301,65 C850.4301,65 832.4301,65 832.4301,55 L832.4301,29" fill="#E2E2F0" style="stroke:#181818;stroke-width:0.5;"/><path d="M832.4301,29 C832.4301,39 850.4301,39 850.4301,39 C850.4301,39 868.4301,39 868.4301,29" fill="none" style="stroke:#181818;stroke-width:0.5;"/></g><g class="participant participant-tail" data-entity-uid="part6" data-qualified-name="redis" id="part6-tail"><text fill="#000000" font-family="sans-serif" font-size="14" lengthAdjust="spacing" textLength="38.4111" x="828.2245" y="807.5498">Redis</text><path d="M832.4301,820.8516 C832.4301,810.8516 850.4301,810.8516 850.4301,810.8516 C850.4301,810.8516 868.4301,810.8516 868.4301,820.8516 L868.4301,846.8516 C868.4301,856.8516 850.4301,856.8516 850.4301,856.8516 C850.4301,856.8516 832.4301,856.8516 832.4301,846.8516 L832.4301,820.8516" fill="#E2E2F0" style="stroke:#181818;stroke-width:0.5;"/><path d="M832.4301,820.8516 C832.4301,830.8516 850.4301,830.8516 850.4301,830.8516 C850.4301,830.8516 868.4301,830.8516 868.4301,820.8516" fill="none" style="stroke:#181818;stroke-width:0.5;"/></g><g class="message" data-entity-1="part1" data-entity-2="part2" id="msg1"><polygon fill="#181818" points="212.3363,123.5625,222.3363,127.5625,212.3363,131.5625,216.3363,127.5625" style="stroke:#181818;stroke-width:1;"/><line style="stroke:#181818;stroke-width:1;" x1="43.9999" x2="218.3363" y1="127.5625" y2="127.5625"/><text fill="#000000" font-family="sans-serif" font-size="13" lengthAdjust="spacing" textLength="50.6988" x="50.9999" y="107.3638">API &#35831;&#27714;</text><text fill="#000000" font-family="sans-serif" font-size="13" lengthAdjust="spacing" textLength="94.6626" x="50.9999" y="122.4966">X-API-Key: xxx</text></g><g class="message" data-entity-1="part2" data-entity-2="part3" id="msg2"><polygon fill="#181818" points="323.3373,152.6953,333.3373,156.6953,323.3373,160.6953,327.3373,156.6953" style="stroke:#181818;stroke-width:1;"/><line style="stroke:#181818;stroke-width:1;" x1="224.3363" x2="329.3373" y1="156.6953" y2="156.6953"/><text fill="#000000" font-family="sans-serif" font-size="13" lengthAdjust="spacing" textLength="87.001" x="231.3363" y="151.6294">canActivate()</text></g><g class="message" data-entity-1="part3" data-entity-2="part4" id="msg3"><polygon fill="#181818" points="477.8705,181.8281,487.8705,185.8281,477.8705,189.8281,481.8705,185.8281" style="stroke:#181818;stroke-width:1;"/><line style="stroke:#181818;stroke-width:1;" x1="335.3373" x2="483.8705" y1="185.8281" y2="185.8281"/><text fill="#000000" font-family="sans-serif" font-size="13" lengthAdjust="spacing" textLength="130.5332" x="342.3373" y="180.7622">validateApiKey(key)</text></g><g class="message" data-entity-1="part4" data-entity-2="part5" id="msg4"><polygon fill="#181818" points="762.8481,210.9609,772.8481,214.9609,762.8481,218.9609,766.8481,214.9609" style="stroke:#181818;stroke-width:1;"/><line style="stroke:#181818;stroke-width:1;" x1="489.8705" x2="768.8481" y1="214.9609" y2="214.9609"/><text fill="#000000" font-family="sans-serif" font-size="13" lengthAdjust="spacing" textLength="260.9775" x="496.8705" y="209.895">SELECT * FROM api_key WHERE key = ?</text></g><g class="message" data-entity-1="part5" data-entity-2="part4" id="msg5"><polygon fill="#181818" points="500.8705,240.0938,490.8705,244.0938,500.8705,248.0938,496.8705,244.0938" style="stroke:#181818;stroke-width:1;"/><line style="stroke:#181818;stroke-width:1;stroke-dasharray:2,2;" x1="494.8705" x2="773.8481" y1="244.0938" y2="244.0938"/><text fill="#000000" font-family="sans-serif" font-size="13" lengthAdjust="spacing" textLength="91" x="506.8705" y="239.0278">API Key Entity</text></g><g class="message" data-entity-1="part4" data-entity-2="part4" id="msg6"><line style="stroke:#181818;stroke-width:1;" x1="489.8705" x2="531.8705" y1="318.625" y2="318.625"/><line style="stroke:#181818;stroke-width:1;" x1="531.8705" x2="531.8705" y1="318.625" y2="331.625"/><line style="stroke:#181818;stroke-width:1;" x1="490.8705" x2="531.8705" y1="331.625" y2="331.625"/><polygon fill="#181818" points="500.8705,327.625,490.8705,331.625,500.8705,335.625,496.8705,331.625" style="stroke:#181818;stroke-width:1;"/><text fill="#000000" font-family="sans-serif" font-size="13" lengthAdjust="spacing" textLength="52.0001" x="496.8705" y="268.1606">&#39564;&#35777;&#29366;&#24577;</text><text fill="#000000" font-family="sans-serif" font-size="13" lengthAdjust="spacing" textLength="60.8233" x="496.8705" y="283.2935">- &#26159;&#21542;&#36807;&#26399;</text><text fill="#000000" font-family="sans-serif" font-size="13" lengthAdjust="spacing" textLength="73.8233" x="496.8705" y="298.4263">- &#26159;&#21542;&#34987;&#31105;&#29992;</text><text fill="#000000" font-family="sans-serif" font-size="13" lengthAdjust="spacing" textLength="60.8233" x="496.8705" y="313.5591">- &#26435;&#38480;&#26816;&#26597;</text></g><g class="message" data-entity-1="part4" data-entity-2="part4" id="msg7"><line style="stroke:#181818;stroke-width:1;" x1="489.8705" x2="531.8705" y1="360.7578" y2="360.7578"/><line style="stroke:#181818;stroke-width:1;" x1="531.8705" x2="531.8705" y1="360.7578" y2="373.7578"/><line style="stroke:#181818;stroke-width:1;" x1="490.8705" x2="531.8705" y1="373.7578" y2="373.7578"/><polygon fill="#181818" points="500.8705,369.7578,490.8705,373.7578,500.8705,377.7578,496.8705,373.7578" style="stroke:#181818;stroke-width:1;"/><text fill="#000000" font-family="sans-serif" font-size="13" lengthAdjust="spacing" textLength="78.0001" x="496.8705" y="355.6919">&#26816;&#26597;&#36895;&#29575;&#38480;&#21046;</text></g><g class="message" data-entity-1="part4" data-entity-2="part6" id="msg8"><polygon fill="#181818" points="838.4301,398.8906,848.4301,402.8906,838.4301,406.8906,842.4301,402.8906" style="stroke:#181818;stroke-width:1;"/><line style="stroke:#181818;stroke-width:1;" x1="489.8705" x2="844.4301" y1="402.8906" y2="402.8906"/><text fill="#000000" font-family="sans-serif" font-size="13" lengthAdjust="spacing" textLength="78.0001" x="496.8705" y="397.8247">&#33719;&#21462;&#35831;&#27714;&#35745;&#25968;</text></g><g class="message" data-entity-1="part6" data-entity-2="part4" id="msg9"><polygon fill="#181818" points="500.8705,428.0234,490.8705,432.0234,500.8705,436.0234,496.8705,432.0234" style="stroke:#181818;stroke-width:1;"/><line style="stroke:#181818;stroke-width:1;stroke-dasharray:2,2;" x1="494.8705" x2="849.4301" y1="432.0234" y2="432.0234"/><text fill="#000000" font-family="sans-serif" font-size="13" lengthAdjust="spacing" textLength="52.0001" x="506.8705" y="426.9575">&#24403;&#21069;&#35745;&#25968;</text></g><path d="M10,447.0234 L74.4429,447.0234 L74.4429,454.1563 L64.4429,464.1563 L10,464.1563 L10,447.0234" fill="#EEEEEE" style="stroke:#000000;stroke-width:1.5;"/><rect fill="none" height="235.8672" style="stroke:#000000;stroke-width:1.5;" width="872.6357" x="10" y="447.0234"/><text fill="#000000" font-family="sans-serif" font-size="13" font-weight="bold" lengthAdjust="spacing" textLength="19.4429" x="25" y="460.0903">alt</text><text fill="#000000" font-family="sans-serif" font-size="11" font-weight="bold" lengthAdjust="spacing" textLength="65.0543" x="89.4429" y="459.2339">[&#26410;&#36229;&#36807;&#38480;&#21046;]</text><g class="message" data-entity-1="part4" data-entity-2="part6" id="msg10"><polygon fill="#181818" points="838.4301,481.2891,848.4301,485.2891,838.4301,489.2891,842.4301,485.2891" style="stroke:#181818;stroke-width:1;"/><line style="stroke:#181818;stroke-width:1;" x1="489.8705" x2="844.4301" y1="485.2891" y2="485.2891"/><text fill="#000000" font-family="sans-serif" font-size="13" lengthAdjust="spacing" textLength="52.0001" x="496.8705" y="480.2231">&#22686;&#21152;&#35745;&#25968;</text></g><g class="message" data-entity-1="part4" data-entity-2="part3" id="msg11"><polygon fill="#181818" points="346.3373,510.4219,336.3373,514.4219,346.3373,518.4219,342.3373,514.4219" style="stroke:#181818;stroke-width:1;"/><line style="stroke:#181818;stroke-width:1;stroke-dasharray:2,2;" x1="340.3373" x2="488.8705" y1="514.4219" y2="514.4219"/><text fill="#000000" font-family="sans-serif" font-size="13" lengthAdjust="spacing" textLength="26.6792" x="352.3373" y="509.356">true</text></g><g class="message" data-entity-1="part3" data-entity-2="part2" id="msg12"><polygon fill="#181818" points="235.3363,539.5547,225.3363,543.5547,235.3363,547.5547,231.3363,543.5547" style="stroke:#181818;stroke-width:1;"/><line style="stroke:#181818;stroke-width:1;stroke-dasharray:2,2;" x1="229.3363" x2="334.3373" y1="543.5547" y2="543.5547"/><text fill="#000000" font-family="sans-serif" font-size="13" lengthAdjust="spacing" textLength="52.0001" x="241.3363" y="538.4888">&#20801;&#35768;&#35775;&#38382;</text></g><g class="message" data-entity-1="part2" data-entity-2="part1" id="msg13"><polygon fill="#181818" points="54.9999,568.6875,44.9999,572.6875,54.9999,576.6875,50.9999,572.6875" style="stroke:#181818;stroke-width:1;"/><line style="stroke:#181818;stroke-width:1;stroke-dasharray:2,2;" x1="48.9999" x2="223.3363" y1="572.6875" y2="572.6875"/><text fill="#000000" font-family="sans-serif" font-size="13" lengthAdjust="spacing" textLength="47.7026" x="60.9999" y="567.6216">200 OK</text></g><line style="stroke:#000000;stroke-width:1;stroke-dasharray:2,2;" x1="10" x2="882.6357" y1="581.6875" y2="581.6875"/><text fill="#000000" font-family="sans-serif" font-size="11" font-weight="bold" lengthAdjust="spacing" textLength="54.0544" x="15" y="591.8979">[&#36229;&#36807;&#38480;&#21046;]</text><g class="message" data-entity-1="part4" data-entity-2="part3" id="msg14"><polygon fill="#181818" points="346.3373,612.625,336.3373,616.625,346.3373,620.625,342.3373,616.625" style="stroke:#181818;stroke-width:1;"/><line style="stroke:#181818;stroke-width:1;stroke-dasharray:2,2;" x1="340.3373" x2="488.8705" y1="616.625" y2="616.625"/><text fill="#000000" font-family="sans-serif" font-size="13" lengthAdjust="spacing" textLength="111.6553" x="352.3373" y="611.5591">false (Rate Limit)</text></g><g class="message" data-entity-1="part3" data-entity-2="part2" id="msg15"><polygon fill="#181818" points="235.3363,641.7578,225.3363,645.7578,235.3363,649.7578,231.3363,645.7578" style="stroke:#181818;stroke-width:1;"/><line style="stroke:#181818;stroke-width:1;stroke-dasharray:2,2;" x1="229.3363" x2="334.3373" y1="645.7578" y2="645.7578"/><text fill="#000000" font-family="sans-serif" font-size="13" lengthAdjust="spacing" textLength="52.0001" x="241.3363" y="640.6919">&#25298;&#32477;&#35775;&#38382;</text></g><g class="message" data-entity-1="part2" data-entity-2="part1" id="msg16"><polygon fill="#181818" points="54.9999,670.8906,44.9999,674.8906,54.9999,678.8906,50.9999,674.8906" style="stroke:#181818;stroke-width:1;"/><line style="stroke:#181818;stroke-width:1;stroke-dasharray:2,2;" x1="48.9999" x2="223.3363" y1="674.8906" y2="674.8906"/><text fill="#000000" font-family="sans-serif" font-size="13" lengthAdjust="spacing" textLength="156.3364" x="60.9999" y="669.8247">429 Too Many Requests</text></g><path d="M494,694.8906 L494,779.8906 L607,779.8906 L607,704.8906 L597,694.8906 L494,694.8906" fill="#FEFFDD" style="stroke:#181818;stroke-width:0.5;"/><path d="M597,694.8906 L597,704.8906 L607,704.8906 L597,694.8906" fill="#FEFFDD" style="stroke:#181818;stroke-width:0.5;"/><text fill="#000000" font-family="sans-serif" font-size="13" lengthAdjust="spacing" textLength="92.0474" x="500" y="711.9575">API Key &#21151;&#33021;&#65306;</text><text fill="#000000" font-family="sans-serif" font-size="13" lengthAdjust="spacing" textLength="60.8233" x="500" y="727.0903">- &#36895;&#29575;&#38480;&#21046;</text><text fill="#000000" font-family="sans-serif" font-size="13" lengthAdjust="spacing" textLength="60.8233" x="500" y="742.2231">- &#26435;&#38480;&#31649;&#29702;</text><text fill="#000000" font-family="sans-serif" font-size="13" lengthAdjust="spacing" textLength="60.8233" x="500" y="757.356">- &#36807;&#26399;&#26102;&#38388;</text><text fill="#000000" font-family="sans-serif" font-size="13" lengthAdjust="spacing" textLength="71.3985" x="500" y="772.4888">- Refill &#26426;&#21046;</text><?plantuml-src XPDTQnDH48RlpwyOUfK82wLuOq0bIApIbDPDGIyASh9x4W-kkt7t92PtYQMsHgt1hwYqnaOiqi96GH9HIt_DVkJAl-3iH-e6KjohEVC-E_FkcLcg2CC4n-wxsoFlQ03K0aNZJ1UaGat15LwXke2vHIhO0zgO2_Ho54y3sTNhiCGQi5YbfXfXGJGRAZ2pnXKMObOK4vKAMgGMWxbLmn9banLkv4D0BIOqcQdS2jDc414IcGNfqiGMP21eumz6xhU7w_ej2KyIDir0lLud4oZW0tz8ArJFAeBNK4cbIPH5EVQ5G8rg71smR8LZdTHTraYJYOgWMaIcaCldhgp1ERWghom3hV3RYC7DQpav1q5q4IuJ1AMfmfFhoEc2YqQovZzcVFZK7xIyzj1jjjPr2Tot0wTpu9zikRkznBb_v1sql5TVmjJUnlXTn_tKT7kVPnUDj76pv-ri8Ufi3vDSUBD8-JiZv_cRw29zUzzz_PL4qlHNECSldSVFOe1g0jpTGt-uYHRZqe3FZF9E_uFJ_XY_DyKaXYFCAWl5U2vJStOsMxxzmxTFnbqxWYRJHInUZ0mipC_3oX9X6kxFsRuIFKiqG5Co5eCylyT5-am7xfCNtg-z_pault01rWm3bgdU09dThp9BM8JfAY6wWKrCNhuZm2YT_WjmkXfEk-Tl7F_v_Hvp4anDB4X4e_RiVQ_pA4n4Y-5sX-Fkzp0XinBND9p9p-0Tx0b1oxy0?></g></svg>