<?plantuml 1.2026.3beta3?><svg xmlns="http://www.w3.org/2000/svg" xmlns:xlink="http://www.w3.org/1999/xlink" contentStyleType="text/css" data-diagram-type="DESCRIPTION" height="835px" preserveAspectRatio="none" style="width:805px;height:835px;background:#FFFFFF;" version="1.1" viewBox="0 0 805 835" width="805px" zoomAndPan="magnify"><defs/><g><!--cluster ???--><g class="cluster" data-qualified-name="..." data-source-line="1" id="ent0002"><path d="M22.5,6 L65.4998,6 A3.75,3.75 0 0 1 67.9998,8.5 L74.9998,28.2969 L429.5,28.2969 A2.5,2.5 0 0 1 432,30.7969 L432,100.8 A2.5,2.5 0 0 1 429.5,103.3 L22.5,103.3 A2.5,2.5 0 0 1 20,100.8 L20,8.5 A2.5,2.5 0 0 1 22.5,6" fill="none" style="stroke:#000000;stroke-width:1.5;"/><line style="stroke:#000000;stroke-width:1.5;" x1="20" x2="74.9998" y1="28.2969" y2="28.2969"/><text fill="#000000" font-family="sans-serif" font-size="14" font-weight="bold" lengthAdjust="spacing" textLength="41.9998" x="24" y="20.9951">&#23458;&#25143;&#31471;</text></g><!--cluster ???--><g class="cluster" data-qualified-name="..." data-source-line="7" id="ent0006"><path d="M138.5,152.3 L181.4998,152.3 A3.75,3.75 0 0 1 183.9998,154.8 L190.9998,174.5969 L293.5,174.5969 A2.5,2.5 0 0 1 296,177.0969 L296,382.22 A2.5,2.5 0 0 1 293.5,384.72 L138.5,384.72 A2.5,2.5 0 0 1 136,382.22 L136,154.8 A2.5,2.5 0 0 1 138.5,152.3" fill="none" style="stroke:#000000;stroke-width:1.5;"/><line style="stroke:#000000;stroke-width:1.5;" x1="136" x2="190.9998" y1="174.5969" y2="174.5969"/><text fill="#000000" font-family="sans-serif" font-size="14" font-weight="bold" lengthAdjust="spacing" textLength="41.9998" x="140" y="167.2951">&#32593;&#20851;&#23618;</text></g><!--cluster ????--><g class="cluster" data-qualified-name="...." data-source-line="12" id="ent0009"><path d="M90.5,417.72 L147.4998,417.72 A3.75,3.75 0 0 1 149.9998,420.22 L156.9998,440.0169 L289.5,440.0169 A2.5,2.5 0 0 1 292,442.5169 L292,656.82 A2.5,2.5 0 0 1 289.5,659.32 L90.5,659.32 A2.5,2.5 0 0 1 88,656.82 L88,420.22 A2.5,2.5 0 0 1 90.5,417.72" fill="none" style="stroke:#000000;stroke-width:1.5;"/><line style="stroke:#000000;stroke-width:1.5;" x1="88" x2="156.9998" y1="440.0169" y2="440.0169"/><text fill="#000000" font-family="sans-serif" font-size="14" font-weight="bold" lengthAdjust="spacing" textLength="55.9998" x="92" y="432.7151">&#35748;&#35777;&#26381;&#21153;</text></g><!--cluster ???--><g class="cluster" data-qualified-name="..." data-source-line="17" id="ent0012"><path d="M8.5,708.32 L51.4998,708.32 A3.75,3.75 0 0 1 53.9998,710.82 L60.9998,730.6169 L412.5,730.6169 A2.5,2.5 0 0 1 415,733.1169 L415,818.41 A2.5,2.5 0 0 1 412.5,820.91 L8.5,820.91 A2.5,2.5 0 0 1 6,818.41 L6,710.82 A2.5,2.5 0 0 1 8.5,708.32" fill="none" style="stroke:#000000;stroke-width:1.5;"/><line style="stroke:#000000;stroke-width:1.5;" x1="6" x2="60.9998" y1="730.6169" y2="730.6169"/><text fill="#000000" font-family="sans-serif" font-size="14" font-weight="bold" lengthAdjust="spacing" textLength="41.9998" x="10" y="723.3151">&#25968;&#25454;&#23618;</text></g><!--cluster OAuth ???--><g class="cluster" data-qualified-name="OAuth ..." data-source-line="23" id="ent0016"><path d="M451.5,562.02 L548.7361,562.02 A3.75,3.75 0 0 1 551.2361,564.52 L558.2361,584.3169 L787.5,584.3169 A2.5,2.5 0 0 1 790,586.8169 L790,656.82 A2.5,2.5 0 0 1 787.5,659.32 L451.5,659.32 A2.5,2.5 0 0 1 449,656.82 L449,564.52 A2.5,2.5 0 0 1 451.5,562.02" fill="none" style="stroke:#000000;stroke-width:1.5;"/><line style="stroke:#000000;stroke-width:1.5;" x1="449" x2="558.2361" y1="584.3169" y2="584.3169"/><text fill="#000000" font-family="sans-serif" font-size="14" font-weight="bold" lengthAdjust="spacing" textLength="96.2361" x="453" y="577.0151">OAuth &#25552;&#20379;&#21830;</text></g><!--entity web--><g class="entity" data-qualified-name="....web" data-source-line="2" id="ent0003"><rect fill="#F1F1F1" height="46.2969" rx="2.5" ry="2.5" style="stroke:#181818;stroke-width:0.5;" width="103.7928" x="36.1" y="41"/><rect fill="#F1F1F1" height="10" style="stroke:#181818;stroke-width:0.5;" width="15" x="119.8928" y="46"/><rect fill="#F1F1F1" height="2" style="stroke:#181818;stroke-width:0.5;" width="4" x="117.8928" y="48"/><rect fill="#F1F1F1" height="2" style="stroke:#181818;stroke-width:0.5;" width="4" x="117.8928" y="52"/><text fill="#000000" font-family="sans-serif" font-size="14" lengthAdjust="spacing" textLength="63.7928" x="51.1" y="73.9951">Web &#24212;&#29992;</text></g><!--entity mobile--><g class="entity" data-qualified-name="....mobile" data-source-line="3" id="ent0004"><rect fill="#F1F1F1" height="46.2969" rx="2.5" ry="2.5" style="stroke:#181818;stroke-width:0.5;" width="95.9998" x="175" y="41"/><rect fill="#F1F1F1" height="10" style="stroke:#181818;stroke-width:0.5;" width="15" x="250.9998" y="46"/><rect fill="#F1F1F1" height="2" style="stroke:#181818;stroke-width:0.5;" width="4" x="248.9998" y="48"/><rect fill="#F1F1F1" height="2" style="stroke:#181818;stroke-width:0.5;" width="4" x="248.9998" y="52"/><text fill="#000000" font-family="sans-serif" font-size="14" lengthAdjust="spacing" textLength="55.9998" x="190" y="73.9951">&#31227;&#21160;&#24212;&#29992;</text></g><!--entity third_party--><g class="entity" data-qualified-name="....third_party" data-source-line="4" id="ent0005"><rect fill="#F1F1F1" height="46.2969" rx="2.5" ry="2.5" style="stroke:#181818;stroke-width:0.5;" width="109.9997" x="306" y="41"/><rect fill="#F1F1F1" height="10" style="stroke:#181818;stroke-width:0.5;" width="15" x="395.9997" y="46"/><rect fill="#F1F1F1" height="2" style="stroke:#181818;stroke-width:0.5;" width="4" x="393.9997" y="48"/><rect fill="#F1F1F1" height="2" style="stroke:#181818;stroke-width:0.5;" width="4" x="393.9997" y="52"/><text fill="#000000" font-family="sans-serif" font-size="14" lengthAdjust="spacing" textLength="69.9997" x="321" y="73.9951">&#31532;&#19977;&#26041;&#24212;&#29992;</text></g><!--entity gateway--><g class="entity" data-qualified-name="....gateway" data-source-line="8" id="ent0007"><rect fill="#F1F1F1" height="62.5938" rx="2.5" ry="2.5" style="stroke:#181818;stroke-width:0.5;" width="101.8447" x="172.08" y="187.3"/><rect fill="#F1F1F1" height="10" style="stroke:#181818;stroke-width:0.5;" width="15" x="253.9247" y="192.3"/><rect fill="#F1F1F1" height="2" style="stroke:#181818;stroke-width:0.5;" width="4" x="251.9247" y="194.3"/><rect fill="#F1F1F1" height="2" style="stroke:#181818;stroke-width:0.5;" width="4" x="251.9247" y="198.3"/><text fill="#000000" font-family="sans-serif" font-size="14" lengthAdjust="spacing" textLength="61.8447" x="187.08" y="220.2951">Gateway</text><text fill="#000000" font-family="sans-serif" font-size="14" lengthAdjust="spacing" textLength="55.8086" x="187.08" y="236.592">(NestJS)</text></g><!--entity auth--><g class="entity" data-qualified-name="....auth" data-source-line="9" id="ent0008"><rect fill="#F1F1F1" height="46.2969" rx="2.5" ry="2.5" style="stroke:#181818;stroke-width:0.5;" width="128.1699" x="151.92" y="322.43"/><rect fill="#F1F1F1" height="10" style="stroke:#181818;stroke-width:0.5;" width="15" x="260.0899" y="327.43"/><rect fill="#F1F1F1" height="2" style="stroke:#181818;stroke-width:0.5;" width="4" x="258.0899" y="329.43"/><rect fill="#F1F1F1" height="2" style="stroke:#181818;stroke-width:0.5;" width="4" x="258.0899" y="333.43"/><text fill="#000000" font-family="sans-serif" font-size="14" lengthAdjust="spacing" textLength="88.1699" x="166.92" y="355.4251">Auth Module</text></g><!--entity better_auth--><g class="entity" data-qualified-name=".....better_auth" data-source-line="13" id="ent0010"><rect fill="#F1F1F1" height="46.2969" rx="2.5" ry="2.5" style="stroke:#181818;stroke-width:0.5;" width="120.8281" x="155.59" y="452.72"/><rect fill="#F1F1F1" height="10" style="stroke:#181818;stroke-width:0.5;" width="15" x="256.4181" y="457.72"/><rect fill="#F1F1F1" height="2" style="stroke:#181818;stroke-width:0.5;" width="4" x="254.4181" y="459.72"/><rect fill="#F1F1F1" height="2" style="stroke:#181818;stroke-width:0.5;" width="4" x="254.4181" y="463.72"/><text fill="#000000" font-family="sans-serif" font-size="14" lengthAdjust="spacing" textLength="80.8281" x="170.59" y="485.7151">Better Auth</text></g><!--entity adapter--><g class="entity" data-qualified-name=".....adapter" data-source-line="14" id="ent0011"><rect fill="#F1F1F1" height="46.2969" rx="2.5" ry="2.5" style="stroke:#181818;stroke-width:0.5;" width="171.4619" x="104.27" y="597.02"/><rect fill="#F1F1F1" height="10" style="stroke:#181818;stroke-width:0.5;" width="15" x="255.7319" y="602.02"/><rect fill="#F1F1F1" height="2" style="stroke:#181818;stroke-width:0.5;" width="4" x="253.7319" y="604.02"/><rect fill="#F1F1F1" height="2" style="stroke:#181818;stroke-width:0.5;" width="4" x="253.7319" y="608.02"/><text fill="#000000" font-family="sans-serif" font-size="14" lengthAdjust="spacing" textLength="131.4619" x="119.27" y="630.0151">MikroORM Adapter</text></g><!--entity pg_master--><g class="entity" data-qualified-name="....pg_master" data-source-line="18" id="ent0013"><path d="M21.62,753.32 C21.62,743.32 71.9965,743.32 71.9965,743.32 C71.9965,743.32 122.3729,743.32 122.3729,753.32 L122.3729,794.9137 C122.3729,804.9137 71.9965,804.9137 71.9965,804.9137 C71.9965,804.9137 21.62,804.9137 21.62,794.9137 L21.62,753.32" fill="#F1F1F1" style="stroke:#181818;stroke-width:0.5;"/><path d="M21.62,753.32 C21.62,763.32 71.9965,763.32 71.9965,763.32 C71.9965,763.32 122.3729,763.32 122.3729,753.32" fill="none" style="stroke:#181818;stroke-width:0.5;"/><text fill="#000000" font-family="sans-serif" font-size="14" lengthAdjust="spacing" textLength="80.7529" x="31.62" y="780.3151">PostgreSQL</text><text fill="#000000" font-family="sans-serif" font-size="14" lengthAdjust="spacing" textLength="38.9237" x="31.62" y="796.612">(&#20027;&#24211;)</text></g><!--entity pg_slave--><g class="entity" data-qualified-name="....pg_slave" data-source-line="19" id="ent0014"><path d="M157.62,753.32 C157.62,743.32 207.9965,743.32 207.9965,743.32 C207.9965,743.32 258.3729,743.32 258.3729,753.32 L258.3729,794.9137 C258.3729,804.9137 207.9965,804.9137 207.9965,804.9137 C207.9965,804.9137 157.62,804.9137 157.62,794.9137 L157.62,753.32" fill="#F1F1F1" style="stroke:#181818;stroke-width:0.5;"/><path d="M157.62,753.32 C157.62,763.32 207.9965,763.32 207.9965,763.32 C207.9965,763.32 258.3729,763.32 258.3729,753.32" fill="none" style="stroke:#181818;stroke-width:0.5;"/><text fill="#000000" font-family="sans-serif" font-size="14" lengthAdjust="spacing" textLength="80.7529" x="167.62" y="780.3151">PostgreSQL</text><text fill="#000000" font-family="sans-serif" font-size="14" lengthAdjust="spacing" textLength="38.9237" x="167.62" y="796.612">(&#20174;&#24211;)</text></g><!--entity redis--><g class="entity" data-qualified-name="....redis" data-source-line="20" id="ent0015"><path d="M293.18,753.32 C293.18,743.32 346.0002,743.32 346.0002,743.32 C346.0002,743.32 398.8203,743.32 398.8203,753.32 L398.8203,794.9137 C398.8203,804.9137 346.0002,804.9137 346.0002,804.9137 C346.0002,804.9137 293.18,804.9137 293.18,794.9137 L293.18,753.32" fill="#F1F1F1" style="stroke:#181818;stroke-width:0.5;"/><path d="M293.18,753.32 C293.18,763.32 346.0002,763.32 346.0002,763.32 C346.0002,763.32 398.8203,763.32 398.8203,753.32" fill="none" style="stroke:#181818;stroke-width:0.5;"/><text fill="#000000" font-family="sans-serif" font-size="14" lengthAdjust="spacing" textLength="38.4111" x="303.18" y="780.3151">Redis</text><text fill="#000000" font-family="sans-serif" font-size="14" lengthAdjust="spacing" textLength="85.6403" x="303.18" y="796.612">(&#32531;&#23384;/&#40657;&#21517;&#21333;)</text></g><!--entity github--><g class="entity" data-qualified-name="OAuth ....github" data-source-line="24" id="ent0017"><rect fill="#F1F1F1" height="46.2969" rx="2.5" ry="2.5" style="stroke:#181818;stroke-width:0.5;" width="136.7969" x="464.6" y="597.02"/><rect fill="#F1F1F1" height="10" style="stroke:#181818;stroke-width:0.5;" width="15" x="581.3969" y="602.02"/><rect fill="#F1F1F1" height="2" style="stroke:#181818;stroke-width:0.5;" width="4" x="579.3969" y="604.02"/><rect fill="#F1F1F1" height="2" style="stroke:#181818;stroke-width:0.5;" width="4" x="579.3969" y="608.02"/><text fill="#000000" font-family="sans-serif" font-size="14" lengthAdjust="spacing" textLength="96.7969" x="479.6" y="630.0151">GitHub OAuth</text></g><!--entity google--><g class="entity" data-qualified-name="OAuth ....google" data-source-line="25" id="ent0018"><rect fill="#F1F1F1" height="46.2969" rx="2.5" ry="2.5" style="stroke:#181818;stroke-width:0.5;" width="137.6514" x="636.17" y="597.02"/><rect fill="#F1F1F1" height="10" style="stroke:#181818;stroke-width:0.5;" width="15" x="753.8214" y="602.02"/><rect fill="#F1F1F1" height="2" style="stroke:#181818;stroke-width:0.5;" width="4" x="751.8214" y="604.02"/><rect fill="#F1F1F1" height="2" style="stroke:#181818;stroke-width:0.5;" width="4" x="751.8214" y="608.02"/><text fill="#000000" font-family="sans-serif" font-size="14" lengthAdjust="spacing" textLength="97.6514" x="651.17" y="630.0151">Google OAuth</text></g><g class="entity" data-qualified-name="GMN30" data-source-line="45" id="ent0031"><path d="M312.22,175.76 L312.22,214.59 L274.27,218.59 L312.22,222.59 L312.22,261.4241 A0,0 0 0 0 312.22,261.4241 L433.7796,261.4241 A0,0 0 0 0 433.7796,261.4241 L433.7796,185.76 L423.7796,175.76 L312.22,175.76 A0,0 0 0 0 312.22,175.76" fill="#FEFFDD" style="stroke:#181818;stroke-width:0.5;"/><path d="M423.7796,175.76 L423.7796,185.76 L433.7796,185.76 L423.7796,175.76" fill="#FEFFDD" style="stroke:#181818;stroke-width:0.5;"/><text fill="#000000" font-family="sans-serif" font-size="13" lengthAdjust="spacing" textLength="100.5596" x="318.22" y="192.8269">Gateway &#29305;&#24615;&#65306;</text><text fill="#000000" font-family="sans-serif" font-size="13" lengthAdjust="spacing" textLength="60.8233" x="318.22" y="207.9597">- &#36127;&#36733;&#22343;&#34913;</text><text fill="#000000" font-family="sans-serif" font-size="13" lengthAdjust="spacing" textLength="62.7022" x="318.22" y="223.0925">- SSL &#32456;&#27490;</text><text fill="#000000" font-family="sans-serif" font-size="13" lengthAdjust="spacing" textLength="60.8233" x="318.22" y="238.2253">- &#36895;&#29575;&#38480;&#21046;</text><text fill="#000000" font-family="sans-serif" font-size="13" lengthAdjust="spacing" textLength="60.8233" x="318.22" y="253.3581">- &#35831;&#27714;&#26085;&#24535;</text></g><g class="entity" data-qualified-name="GMN33" data-source-line="53" id="ent0034"><path d="M433.44,738.85 L433.44,809.3813 L598.5573,809.3813 L598.5573,748.85 L588.5573,738.85 L433.44,738.85" fill="#FEFFDD" style="stroke:#181818;stroke-width:0.5;"/><path d="M588.5573,738.85 L588.5573,748.85 L598.5573,748.85 L588.5573,738.85" fill="#FEFFDD" style="stroke:#181818;stroke-width:1;"/><text fill="#000000" font-family="sans-serif" font-size="13" lengthAdjust="spacing" textLength="144.1173" x="439.44" y="755.9169">PostgreSQL &#20027;&#20174;&#22797;&#21046;&#65306;</text><text fill="#000000" font-family="sans-serif" font-size="13" lengthAdjust="spacing" textLength="86.8233" x="439.44" y="771.0497">- &#20027;&#24211;&#65306;&#20889;&#25805;&#20316;</text><text fill="#000000" font-family="sans-serif" font-size="13" lengthAdjust="spacing" textLength="86.8233" x="439.44" y="786.1825">- &#20174;&#24211;&#65306;&#35835;&#25805;&#20316;</text><text fill="#000000" font-family="sans-serif" font-size="13" lengthAdjust="spacing" textLength="86.8233" x="439.44" y="801.3153">- &#33258;&#21160;&#25925;&#38556;&#36716;&#31227;</text></g><!--link web to gateway--><g class="link" data-entity-1="ent0003" data-entity-2="ent0007" data-link-type="dependency" data-source-line="28" id="lnk19"><path d="M107.92,87.64 C131.17,113.9 165.7621,152.9682 191.7721,182.3382" fill="none" id="web-to-gateway" style="stroke:#181818;stroke-width:1;"/><polygon fill="#181818" points="195.75,186.83,192.7776,177.4404,192.4351,183.0868,186.7886,182.7443,195.75,186.83" style="stroke:#181818;stroke-width:1;"/><text fill="#000000" font-family="sans-serif" font-size="13" lengthAdjust="spacing" textLength="41.7485" x="149" y="132.3669">HTTPS</text></g><!--link mobile to gateway--><g class="link" data-entity-1="ent0004" data-entity-2="ent0007" data-link-type="dependency" data-source-line="29" id="lnk20"><path d="M223,87.64 C223,113.9 223,151.46 223,180.83" fill="none" id="mobile-to-gateway" style="stroke:#181818;stroke-width:1;"/><polygon fill="#181818" points="223,186.83,227,177.83,223,181.83,219,177.83,223,186.83" style="stroke:#181818;stroke-width:1;"/><text fill="#000000" font-family="sans-serif" font-size="13" lengthAdjust="spacing" textLength="41.7485" x="224" y="132.3669">HTTPS</text></g><!--link third_party to gateway--><g class="link" data-entity-1="ent0005" data-entity-2="ent0007" data-link-type="dependency" data-source-line="30" id="lnk21"><path d="M340.64,87.64 C316.87,113.9 281.4669,153.0121 254.8769,182.3821" fill="none" id="third_party-to-gateway" style="stroke:#181818;stroke-width:1;"/><polygon fill="#181818" points="250.85,186.83,259.8556,182.8427,254.2058,183.1234,253.9251,177.4735,250.85,186.83" style="stroke:#181818;stroke-width:1;"/><text fill="#000000" font-family="sans-serif" font-size="13" lengthAdjust="spacing" textLength="41.7485" x="309" y="132.3669">HTTPS</text></g><!--link gateway to auth--><g class="link" data-entity-1="ent0007" data-entity-2="ent0008" data-link-type="dependency" data-source-line="32" id="lnk22"><path d="M221.29,250.17 C220.04,272.43 218.714,296.0793 217.594,316.1693" fill="none" id="gateway-to-auth" style="stroke:#181818;stroke-width:1;"/><polygon fill="#181818" points="217.26,322.16,221.7548,313.3966,217.5383,317.1678,213.7672,312.9513,217.26,322.16" style="stroke:#181818;stroke-width:1;"/></g><!--link auth to better_auth--><g class="link" data-entity-1="ent0008" data-entity-2="ent0010" data-link-type="dependency" data-source-line="33" id="lnk23"><path d="M216,369.22 C216,392.67 216,423.09 216,446.46" fill="none" id="auth-to-better_auth" style="stroke:#181818;stroke-width:1;"/><polygon fill="#181818" points="216,452.46,220,443.46,216,447.46,212,443.46,216,452.46" style="stroke:#181818;stroke-width:1;"/></g><!--link better_auth to adapter--><g class="link" data-entity-1="ent0010" data-entity-2="ent0011" data-link-type="dependency" data-source-line="34" id="lnk24"><path d="M211.88,499.42 C207.01,526.06 200.0384,564.2277 195.1784,590.8277" fill="none" id="better_auth-to-adapter" style="stroke:#181818;stroke-width:1;"/><polygon fill="#181818" points="194.1,596.73,199.6524,588.5955,194.9987,591.8114,191.7827,587.1576,194.1,596.73" style="stroke:#181818;stroke-width:1;"/></g><!--link adapter to pg_master--><g class="link" data-entity-1="ent0011" data-entity-2="ent0013" data-link-type="dependency" data-source-line="36" id="lnk25"><path d="M171.92,643.76 C164.21,653.44 155.12,664.91 147,675.32 C129.36,697.92 113.2777,718.8785 98.4877,738.2785" fill="none" id="adapter-to-pg_master" style="stroke:#181818;stroke-width:1;"/><polygon fill="#181818" points="94.85,743.05,103.4875,738.3178,97.8814,739.0737,97.1255,733.4676,94.85,743.05" style="stroke:#181818;stroke-width:1;"/><text fill="#000000" font-family="sans-serif" font-size="13" lengthAdjust="spacing" textLength="39" x="148" y="688.3869">&#20889;&#25805;&#20316;</text></g><!--link adapter to pg_slave--><g class="link" data-entity-1="ent0011" data-entity-2="ent0014" data-link-type="dependency" data-source-line="37" id="lnk26"><path d="M192.66,643.59 C195.78,669.92 200.2539,707.7617 203.7239,737.0417" fill="none" id="adapter-to-pg_slave" style="stroke:#181818;stroke-width:1;"/><polygon fill="#181818" points="204.43,743,207.343,733.5918,203.8416,738.0347,199.3986,734.5333,204.43,743" style="stroke:#181818;stroke-width:1;"/><text fill="#000000" font-family="sans-serif" font-size="13" lengthAdjust="spacing" textLength="39" x="198" y="688.3869">&#35835;&#25805;&#20316;</text></g><!--link better_auth to redis--><g class="link" data-entity-1="ent0010" data-entity-2="ent0015" data-link-type="dependency" data-source-line="39" id="lnk27"><path d="M245.24,499.27 C261.61,513.3 281.06,532.73 293,554.02 C327.44,615.47 339.0782,692.8473 343.2982,736.9273" fill="none" id="better_auth-to-redis" style="stroke:#181818;stroke-width:1;"/><polygon fill="#181818" points="343.87,742.9,346.9941,733.5598,343.3935,737.9228,339.0305,734.3222,343.87,742.9" style="stroke:#181818;stroke-width:1;"/><text fill="#000000" font-family="sans-serif" font-size="13" lengthAdjust="spacing" textLength="82.7925" x="333" y="617.2369">Token &#40657;&#21517;&#21333;</text><text fill="#000000" font-family="sans-serif" font-size="13" lengthAdjust="spacing" textLength="52.0001" x="348.3962" y="632.3697">&#20250;&#35805;&#32531;&#23384;</text></g><!--link better_auth to github--><g class="link" data-entity-1="ent0010" data-entity-2="ent0017" data-link-type="dependency" data-source-line="41" id="lnk28"><path d="M276.87,492.76 C322.64,505.94 386.11,526.9 438,554.02 C461.4,566.25 481.0995,579.6175 499.3695,593.1575" fill="none" id="better_auth-to-github" style="stroke:#181818;stroke-width:1;"/><polygon fill="#181818" points="504.19,596.73,499.3409,588.1576,500.1729,593.7529,494.5776,594.5849,504.19,596.73" style="stroke:#181818;stroke-width:1;"/><text fill="#000000" font-family="sans-serif" font-size="13" lengthAdjust="spacing" textLength="40.7012" x="421" y="542.0869">OAuth</text></g><!--link better_auth to google--><g class="link" data-entity-1="ent0010" data-entity-2="ent0018" data-link-type="dependency" data-source-line="42" id="lnk29"><path d="M276.6,479.88 C357.77,485.79 504.78,503.19 619,554.02 C642.44,564.45 660.9348,578.406 677.2348,592.816" fill="none" id="better_auth-to-google" style="stroke:#181818;stroke-width:1;"/><polygon fill="#181818" points="681.73,596.79,677.6365,587.8321,677.984,593.4783,672.3378,593.8258,681.73,596.79" style="stroke:#181818;stroke-width:1;"/><text fill="#000000" font-family="sans-serif" font-size="13" lengthAdjust="spacing" textLength="40.7012" x="599" y="542.0869">OAuth</text></g><!--link GMN33 to pg_master--><g class="link" data-entity-1="ent0034" data-entity-2="ent0013" data-link-type="association" data-source-line="53" id="lnk35"><path d="M482.05,738.54 C460.11,718.22 429.73,694.7 397.5,683.82 C346.97,666.76 207.07,664.13 157.5,683.82 C129.01,695.13 105.82,721.68 90.81,743.07" fill="none" id="GMN33-pg_master" style="stroke:#181818;stroke-width:1;stroke-dasharray:7,7;"/></g><?plantuml-src VLHDJzj04BtxLwnoAeUeznugqGke8WqbaNeeLRIk5yUAYIDxKuIgIXG94f0CGI6bf44eY0hKXgIeLVbmqlwPxDevyHUwtdKSXw3w4EtCc_Tc_MRY0doRWoe2CT8-eUKhztid1jvBW3slNo4PaDjzT__y3O0MM46ooBjd3ja-Zo3BXgpfA01RhVxr5lrq4y5nLZELJ06QU5Nw84c5OKktjqSsVfBBzR3b3CHe1QukvX-zG1P-dfhYV5LaHSbq4MT1mb2AEk8WPF6OgjS-zJeVQSCcsyrG-1d269d09tEMpECC9_E2X9OpZUH20amhiC0WeItEO_AqzeFQxSYb5OYX32q6pHiMLasKUZd7Ng1_xP3RwbJCrocecMLe-Kh_8pWxKOAbmtVeNlq2KZIBbRhTAhdu_7ZWx96AJUoQ89a-EdRN93UBxbRwVxwGskR8PWtF5cMG3ErGDPmj1kETCGnLHr6G9tnXjW8W7dyw70Xu0cRJwVcK91RWGIWo-mTnQPZmGJuE_uT7qHb5pg8oc8mK77Woj9cfayr3MhNxlSRz2kuhA_0wJb0m8SwDP2Lf8uVo87HvCT_lrhtEaN1_aYPCP3nktIGiV1t2Kjx029YQciN0M8hiUF0V0ExM3Lqxk-lMMIuEl5_7Ngz7ZafUiyaJgTGSS9qolJZXuM3jsDqf3GuhfFnR43fNz7AT7dmbVmyab5U0to_eggCbtZIwbwDT16nr_MKyjPdMiBzOPnQDZELflhHtlYzE9EsLlh5F1Arj3EeDhzTYNupm2ly0?></g></svg>