<?plantuml 1.2026.3beta3?><svg xmlns="http://www.w3.org/2000/svg" xmlns:xlink="http://www.w3.org/1999/xlink" contentStyleType="text/css" data-diagram-type="SEQUENCE" height="813px" preserveAspectRatio="none" style="width:1167px;height:813px;background:#FFFFFF;" version="1.1" viewBox="0 0 1167 813" width="1167px" zoomAndPan="magnify"><defs/><g><g class="participant-lifeline" data-entity-uid="part1" data-qualified-name="user" id="part1-lifeline"><g><title>..</title><rect fill="#000000" fill-opacity="0.00000" height="649.9219" width="8" x="17.9999" y="81.2969"/><line style="stroke:#181818;stroke-width:0.5;stroke-dasharray:5,5;" x1="21" x2="21" y1="81.2969" y2="731.2188"/></g></g><g class="participant-lifeline" data-entity-uid="part2" data-qualified-name="frontend" id="part2-lifeline"><g><title>..</title><rect fill="#000000" fill-opacity="0.00000" height="649.9219" width="8" x="124.3799" y="81.2969"/><line style="stroke:#181818;stroke-width:0.5;stroke-dasharray:5,5;" x1="127.38" x2="127.38" y1="81.2969" y2="731.2188"/></g></g><g class="participant-lifeline" data-entity-uid="part3" data-qualified-name="gateway" id="part3-lifeline"><g><title>Gateway</title><rect fill="#000000" fill-opacity="0.00000" height="649.9219" width="8" x="308.7281" y="81.2969"/><line style="stroke:#181818;stroke-width:0.5;stroke-dasharray:5,5;" x1="312.0484" x2="312.0484" y1="81.2969" y2="731.2188"/></g></g><g class="participant-lifeline" data-entity-uid="part4" data-qualified-name="better_auth" id="part4-lifeline"><g><title>Better Auth</title><rect fill="#000000" fill-opacity="0.00000" height="649.9219" width="8" x="531.6319" y="81.2969"/><line style="stroke:#181818;stroke-width:0.5;stroke-dasharray:5,5;" x1="535.2178" x2="535.2178" y1="81.2969" y2="731.2188"/></g></g><g class="participant-lifeline" data-entity-uid="part5" data-qualified-name="adapter" id="part5-lifeline"><g><title>MikroORM</title><rect fill="#000000" fill-opacity="0.00000" height="649.9219" width="8" x="778.752" y="81.2969"/><line style="stroke:#181818;stroke-width:0.5;stroke-dasharray:5,5;" x1="782.1402" x2="782.1402" y1="81.2969" y2="731.2188"/></g></g><g class="participant-lifeline" data-entity-uid="part6" data-qualified-name="db" id="part6-lifeline"><g><title>PostgreSQL</title><rect fill="#000000" fill-opacity="0.00000" height="649.9219" width="8" x="1055.1665" y="81.2969"/><line style="stroke:#181818;stroke-width:0.5;stroke-dasharray:5,5;" x1="1058.7901" x2="1058.7901" y1="81.2969" y2="731.2188"/></g></g><g class="participant-lifeline" data-entity-uid="part7" data-qualified-name="redis" id="part7-lifeline"><g><title>Redis</title><rect fill="#000000" fill-opacity="0.00000" height="649.9219" width="8" x="1130.7486" y="81.2969"/><line style="stroke:#181818;stroke-width:0.5;stroke-dasharray:5,5;" x1="1134.543" x2="1134.543" y1="81.2969" y2="731.2188"/></g></g><g class="participant participant-head" data-entity-uid="part1" data-qualified-name="user" id="part1-head"><text fill="#000000" font-family="sans-serif" font-size="14" lengthAdjust="spacing" textLength="27.9999" x="5" y="77.9951">&#29992;&#25143;</text><ellipse cx="21.9999" cy="13.5" fill="#E2E2F0" rx="8" ry="8" style="stroke:#181818;stroke-width:0.5;"/><path d="M21.9999,21.5 L21.9999,48.5 M8.9999,29.5 L34.9999,29.5 M21.9999,48.5 L8.9999,63.5 M21.9999,48.5 L34.9999,63.5" fill="none" style="stroke:#181818;stroke-width:0.5;"/></g><g class="participant participant-tail" data-entity-uid="part1" data-qualified-name="user" id="part1-tail"><text fill="#000000" font-family="sans-serif" font-size="14" lengthAdjust="spacing" textLength="27.9999" x="5" y="743.2139">&#29992;&#25143;</text><ellipse cx="21.9999" cy="755.0156" fill="#E2E2F0" rx="8" ry="8" style="stroke:#181818;stroke-width:0.5;"/><path d="M21.9999,763.0156 L21.9999,790.0156 M8.9999,771.0156 L34.9999,771.0156 M21.9999,790.0156 L8.9999,805.0156 M21.9999,790.0156 L34.9999,805.0156" fill="none" style="stroke:#181818;stroke-width:0.5;"/></g><g class="participant participant-head" data-entity-uid="part2" data-qualified-name="frontend" id="part2-head"><rect fill="#E2E2F0" height="30.2969" rx="2.5" ry="2.5" style="stroke:#181818;stroke-width:0.5;" width="41.9999" x="107.38" y="50"/><text fill="#000000" font-family="sans-serif" font-size="14" lengthAdjust="spacing" textLength="27.9999" x="114.38" y="69.9951">&#21069;&#31471;</text></g><g class="participant participant-tail" data-entity-uid="part2" data-qualified-name="frontend" id="part2-tail"><rect fill="#E2E2F0" height="30.2969" rx="2.5" ry="2.5" style="stroke:#181818;stroke-width:0.5;" width="41.9999" x="107.38" y="730.2188"/><text fill="#000000" font-family="sans-serif" font-size="14" lengthAdjust="spacing" textLength="27.9999" x="114.38" y="750.2139">&#21069;&#31471;</text></g><g class="participant participant-head" data-entity-uid="part3" data-qualified-name="gateway" id="part3-head"><rect fill="#E2E2F0" height="46.5938" rx="2.5" ry="2.5" style="stroke:#181818;stroke-width:0.5;" width="117.3594" x="254.0484" y="33.7031"/><text fill="#000000" font-family="sans-serif" font-size="14" lengthAdjust="spacing" textLength="61.8447" x="281.8057" y="53.6982">Gateway</text><text fill="#000000" font-family="sans-serif" font-size="14" lengthAdjust="spacing" textLength="103.3594" x="261.0484" y="69.9951">auth.controller</text></g><g class="participant participant-tail" data-entity-uid="part3" data-qualified-name="gateway" id="part3-tail"><rect fill="#E2E2F0" height="46.5938" rx="2.5" ry="2.5" style="stroke:#181818;stroke-width:0.5;" width="117.3594" x="254.0484" y="730.2188"/><text fill="#000000" font-family="sans-serif" font-size="14" lengthAdjust="spacing" textLength="61.8447" x="281.8057" y="750.2139">Gateway</text><text fill="#000000" font-family="sans-serif" font-size="14" lengthAdjust="spacing" textLength="103.3594" x="261.0484" y="766.5107">auth.controller</text></g><g class="participant participant-head" data-entity-uid="part4" data-qualified-name="better_auth" id="part4-head"><rect fill="#E2E2F0" height="30.2969" rx="2.5" ry="2.5" style="stroke:#181818;stroke-width:0.5;" width="94.8281" x="488.2178" y="50"/><text fill="#000000" font-family="sans-serif" font-size="14" lengthAdjust="spacing" textLength="80.8281" x="495.2178" y="69.9951">Better Auth</text></g><g class="participant participant-tail" data-entity-uid="part4" data-qualified-name="better_auth" id="part4-tail"><rect fill="#E2E2F0" height="30.2969" rx="2.5" ry="2.5" style="stroke:#181818;stroke-width:0.5;" width="94.8281" x="488.2178" y="730.2188"/><text fill="#000000" font-family="sans-serif" font-size="14" lengthAdjust="spacing" textLength="80.8281" x="495.2178" y="750.2139">Better Auth</text></g><g class="participant participant-head" data-entity-uid="part5" data-qualified-name="adapter" id="part5-head"><rect fill="#E2E2F0" height="46.5938" rx="2.5" ry="2.5" style="stroke:#181818;stroke-width:0.5;" width="85.2236" x="740.1402" y="33.7031"/><text fill="#000000" font-family="sans-serif" font-size="14" lengthAdjust="spacing" textLength="71.2236" x="747.1402" y="53.6982">MikroORM</text><text fill="#000000" font-family="sans-serif" font-size="14" lengthAdjust="spacing" textLength="55.7881" x="754.8579" y="69.9951">Adapter</text></g><g class="participant participant-tail" data-entity-uid="part5" data-qualified-name="adapter" id="part5-tail"><rect fill="#E2E2F0" height="46.5938" rx="2.5" ry="2.5" style="stroke:#181818;stroke-width:0.5;" width="85.2236" x="740.1402" y="730.2188"/><text fill="#000000" font-family="sans-serif" font-size="14" lengthAdjust="spacing" textLength="71.2236" x="747.1402" y="750.2139">MikroORM</text><text fill="#000000" font-family="sans-serif" font-size="14" lengthAdjust="spacing" textLength="55.7881" x="754.8579" y="766.5107">Adapter</text></g><g class="participant participant-head" data-entity-uid="part6" data-qualified-name="db" id="part6-head"><text fill="#000000" font-family="sans-serif" font-size="14" lengthAdjust="spacing" textLength="80.7529" x="1015.7901" y="77.9951">PostgreSQL</text><path d="M1041.1665,29 C1041.1665,19 1059.1665,19 1059.1665,19 C1059.1665,19 1077.1665,19 1077.1665,29 L1077.1665,55 C1077.1665,65 1059.1665,65 1059.1665,65 C1059.1665,65 1041.1665,65 1041.1665,55 L1041.1665,29" fill="#E2E2F0" style="stroke:#181818;stroke-width:0.5;"/><path d="M1041.1665,29 C1041.1665,39 1059.1665,39 1059.1665,39 C1059.1665,39 1077.1665,39 1077.1665,29" fill="none" style="stroke:#181818;stroke-width:0.5;"/></g><g class="participant participant-tail" data-entity-uid="part6" data-qualified-name="db" id="part6-tail"><text fill="#000000" font-family="sans-serif" font-size="14" lengthAdjust="spacing" textLength="80.7529" x="1015.7901" y="743.2139">PostgreSQL</text><path d="M1041.1665,756.5156 C1041.1665,746.5156 1059.1665,746.5156 1059.1665,746.5156 C1059.1665,746.5156 1077.1665,746.5156 1077.1665,756.5156 L1077.1665,782.5156 C1077.1665,792.5156 1059.1665,792.5156 1059.1665,792.5156 C1059.1665,792.5156 1041.1665,792.5156 1041.1665,782.5156 L1041.1665,756.5156" fill="#E2E2F0" style="stroke:#181818;stroke-width:0.5;"/><path d="M1041.1665,756.5156 C1041.1665,766.5156 1059.1665,766.5156 1059.1665,766.5156 C1059.1665,766.5156 1077.1665,766.5156 1077.1665,756.5156" fill="none" style="stroke:#181818;stroke-width:0.5;"/></g><g class="participant participant-head" data-entity-uid="part7" data-qualified-name="redis" id="part7-head"><text fill="#000000" font-family="sans-serif" font-size="14" lengthAdjust="spacing" textLength="38.4111" x="1112.543" y="77.9951">Redis</text><path d="M1116.7486,29 C1116.7486,19 1134.7486,19 1134.7486,19 C1134.7486,19 1152.7486,19 1152.7486,29 L1152.7486,55 C1152.7486,65 1134.7486,65 1134.7486,65 C1134.7486,65 1116.7486,65 1116.7486,55 L1116.7486,29" fill="#E2E2F0" style="stroke:#181818;stroke-width:0.5;"/><path d="M1116.7486,29 C1116.7486,39 1134.7486,39 1134.7486,39 C1134.7486,39 1152.7486,39 1152.7486,29" fill="none" style="stroke:#181818;stroke-width:0.5;"/></g><g class="participant participant-tail" data-entity-uid="part7" data-qualified-name="redis" id="part7-tail"><text fill="#000000" font-family="sans-serif" font-size="14" lengthAdjust="spacing" textLength="38.4111" x="1112.543" y="743.2139">Redis</text><path d="M1116.7486,756.5156 C1116.7486,746.5156 1134.7486,746.5156 1134.7486,746.5156 C1134.7486,746.5156 1152.7486,746.5156 1152.7486,756.5156 L1152.7486,782.5156 C1152.7486,792.5156 1134.7486,792.5156 1134.7486,792.5156 C1134.7486,792.5156 1116.7486,792.5156 1116.7486,782.5156 L1116.7486,756.5156" fill="#E2E2F0" style="stroke:#181818;stroke-width:0.5;"/><path d="M1116.7486,756.5156 C1116.7486,766.5156 1134.7486,766.5156 1134.7486,766.5156 C1134.7486,766.5156 1152.7486,766.5156 1152.7486,756.5156" fill="none" style="stroke:#181818;stroke-width:0.5;"/></g><g class="message" data-entity-1="part1" data-entity-2="part2" id="msg1"><polygon fill="#181818" points="116.3799,108.4297,126.3799,112.4297,116.3799,116.4297,120.3799,112.4297" style="stroke:#181818;stroke-width:1;"/><line style="stroke:#181818;stroke-width:1;" x1="21.9999" x2="122.3799" y1="112.4297" y2="112.4297"/><text fill="#000000" font-family="sans-serif" font-size="13" lengthAdjust="spacing" textLength="82.38" x="28.9999" y="107.3638">&#36755;&#20837;&#37038;&#31665;/&#23494;&#30721;</text></g><g class="message" data-entity-1="part2" data-entity-2="part3" id="msg2"><polygon fill="#181818" points="300.7281,137.5625,310.7281,141.5625,300.7281,145.5625,304.7281,141.5625" style="stroke:#181818;stroke-width:1;"/><line style="stroke:#181818;stroke-width:1;" x1="128.3799" x2="306.7281" y1="141.5625" y2="141.5625"/><text fill="#000000" font-family="sans-serif" font-size="13" lengthAdjust="spacing" textLength="160.3481" x="135.3799" y="136.4966">POST /auth/sign-in/email</text></g><g class="message" data-entity-1="part3" data-entity-2="part4" id="msg3"><polygon fill="#181818" points="523.6319,166.6953,533.6319,170.6953,523.6319,174.6953,527.6319,170.6953" style="stroke:#181818;stroke-width:1;"/><line style="stroke:#181818;stroke-width:1;" x1="312.7281" x2="529.6319" y1="170.6953" y2="170.6953"/><text fill="#000000" font-family="sans-serif" font-size="13" lengthAdjust="spacing" textLength="198.9038" x="319.7281" y="165.6294">authenticate(email, password)</text></g><g class="message" data-entity-1="part4" data-entity-2="part5" id="msg4"><polygon fill="#181818" points="770.752,195.8281,780.752,199.8281,770.752,203.8281,774.752,199.8281" style="stroke:#181818;stroke-width:1;"/><line style="stroke:#181818;stroke-width:1;" x1="535.6319" x2="776.752" y1="199.8281" y2="199.8281"/><text fill="#000000" font-family="sans-serif" font-size="13" lengthAdjust="spacing" textLength="195.4824" x="542.6319" y="194.7622">findOne({ where: { email } })</text></g><g class="message" data-entity-1="part5" data-entity-2="part6" id="msg5"><polygon fill="#181818" points="1047.1665,224.9609,1057.1665,228.9609,1047.1665,232.9609,1051.1665,228.9609" style="stroke:#181818;stroke-width:1;"/><line style="stroke:#181818;stroke-width:1;" x1="782.752" x2="1053.1665" y1="228.9609" y2="228.9609"/><text fill="#000000" font-family="sans-serif" font-size="13" lengthAdjust="spacing" textLength="252.4146" x="789.752" y="223.895">SELECT * FROM user WHERE email = ?</text></g><g class="message" data-entity-1="part6" data-entity-2="part5" id="msg6"><polygon fill="#181818" points="793.752,254.0938,783.752,258.0938,793.752,262.0938,789.752,258.0938" style="stroke:#181818;stroke-width:1;"/><line style="stroke:#181818;stroke-width:1;stroke-dasharray:2,2;" x1="787.752" x2="1058.1665" y1="258.0938" y2="258.0938"/><text fill="#000000" font-family="sans-serif" font-size="13" lengthAdjust="spacing" textLength="71.7158" x="799.752" y="253.0278">User Entity</text></g><g class="message" data-entity-1="part5" data-entity-2="part4" id="msg7"><polygon fill="#181818" points="546.6319,283.2266,536.6319,287.2266,546.6319,291.2266,542.6319,287.2266" style="stroke:#181818;stroke-width:1;"/><line style="stroke:#181818;stroke-width:1;stroke-dasharray:2,2;" x1="540.6319" x2="781.752" y1="287.2266" y2="287.2266"/><text fill="#000000" font-family="sans-serif" font-size="13" lengthAdjust="spacing" textLength="64.8032" x="552.6319" y="282.1606">User Data</text></g><g class="message" data-entity-1="part4" data-entity-2="part4" id="msg8"><line style="stroke:#181818;stroke-width:1;" x1="535.6319" x2="577.6319" y1="316.3594" y2="316.3594"/><line style="stroke:#181818;stroke-width:1;" x1="577.6319" x2="577.6319" y1="316.3594" y2="329.3594"/><line style="stroke:#181818;stroke-width:1;" x1="536.6319" x2="577.6319" y1="329.3594" y2="329.3594"/><polygon fill="#181818" points="546.6319,325.3594,536.6319,329.3594,546.6319,333.3594,542.6319,329.3594" style="stroke:#181818;stroke-width:1;"/><text fill="#000000" font-family="sans-serif" font-size="13" lengthAdjust="spacing" textLength="119.7867" x="542.6319" y="311.2935">&#39564;&#35777;&#23494;&#30721;&#65288;bcrypt&#65289;</text></g><g class="message" data-entity-1="part4" data-entity-2="part4" id="msg9"><line style="stroke:#181818;stroke-width:1;" x1="535.6319" x2="577.6319" y1="358.4922" y2="358.4922"/><line style="stroke:#181818;stroke-width:1;" x1="577.6319" x2="577.6319" y1="358.4922" y2="371.4922"/><line style="stroke:#181818;stroke-width:1;" x1="536.6319" x2="577.6319" y1="371.4922" y2="371.4922"/><polygon fill="#181818" points="546.6319,367.4922,536.6319,371.4922,546.6319,375.4922,542.6319,371.4922" style="stroke:#181818;stroke-width:1;"/><text fill="#000000" font-family="sans-serif" font-size="13" lengthAdjust="spacing" textLength="123.5254" x="542.6319" y="353.4263">&#29983;&#25104; Session Token</text></g><g class="message" data-entity-1="part4" data-entity-2="part5" id="msg10"><polygon fill="#181818" points="770.752,396.625,780.752,400.625,770.752,404.625,774.752,400.625" style="stroke:#181818;stroke-width:1;"/><line style="stroke:#181818;stroke-width:1;" x1="535.6319" x2="776.752" y1="400.625" y2="400.625"/><text fill="#000000" font-family="sans-serif" font-size="13" lengthAdjust="spacing" textLength="223.1201" x="542.6319" y="395.5591">create({ model: "session", data })</text></g><g class="message" data-entity-1="part5" data-entity-2="part6" id="msg11"><polygon fill="#181818" points="1047.1665,425.7578,1057.1665,429.7578,1047.1665,433.7578,1051.1665,429.7578" style="stroke:#181818;stroke-width:1;"/><line style="stroke:#181818;stroke-width:1;" x1="782.752" x2="1053.1665" y1="429.7578" y2="429.7578"/><text fill="#000000" font-family="sans-serif" font-size="13" lengthAdjust="spacing" textLength="135.1162" x="789.752" y="424.6919">INSERT INTO session</text></g><g class="message" data-entity-1="part6" data-entity-2="part5" id="msg12"><polygon fill="#181818" points="793.752,454.8906,783.752,458.8906,793.752,462.8906,789.752,458.8906" style="stroke:#181818;stroke-width:1;"/><line style="stroke:#181818;stroke-width:1;stroke-dasharray:2,2;" x1="787.752" x2="1058.1665" y1="458.8906" y2="458.8906"/><text fill="#000000" font-family="sans-serif" font-size="13" lengthAdjust="spacing" textLength="91.6855" x="799.752" y="453.8247">Session Entity</text></g><g class="message" data-entity-1="part5" data-entity-2="part4" id="msg13"><polygon fill="#181818" points="546.6319,484.0234,536.6319,488.0234,546.6319,492.0234,542.6319,488.0234" style="stroke:#181818;stroke-width:1;"/><line style="stroke:#181818;stroke-width:1;stroke-dasharray:2,2;" x1="540.6319" x2="781.752" y1="488.0234" y2="488.0234"/><text fill="#000000" font-family="sans-serif" font-size="13" lengthAdjust="spacing" textLength="84.7729" x="552.6319" y="482.9575">Session Data</text></g><g class="message" data-entity-1="part4" data-entity-2="part4" id="msg14"><line style="stroke:#181818;stroke-width:1;" x1="535.6319" x2="577.6319" y1="517.1563" y2="517.1563"/><line style="stroke:#181818;stroke-width:1;" x1="577.6319" x2="577.6319" y1="517.1563" y2="530.1563"/><line style="stroke:#181818;stroke-width:1;" x1="536.6319" x2="577.6319" y1="530.1563" y2="530.1563"/><polygon fill="#181818" points="546.6319,526.1563,536.6319,530.1563,546.6319,534.1563,542.6319,530.1563" style="stroke:#181818;stroke-width:1;"/><text fill="#000000" font-family="sans-serif" font-size="13" lengthAdjust="spacing" textLength="148.4273" x="542.6319" y="512.0903">&#35774;&#32622; Cookie/&#36820;&#22238; Token</text></g><g class="message" data-entity-1="part4" data-entity-2="part3" id="msg15"><polygon fill="#181818" points="323.7281,555.2891,313.7281,559.2891,323.7281,563.2891,319.7281,559.2891" style="stroke:#181818;stroke-width:1;"/><line style="stroke:#181818;stroke-width:1;stroke-dasharray:2,2;" x1="317.7281" x2="534.6319" y1="559.2891" y2="559.2891"/><text fill="#000000" font-family="sans-serif" font-size="13" lengthAdjust="spacing" textLength="97.6206" x="329.7281" y="554.2231">Auth Response</text></g><g class="message" data-entity-1="part3" data-entity-2="part2" id="msg16"><polygon fill="#181818" points="139.3799,584.4219,129.3799,588.4219,139.3799,592.4219,135.3799,588.4219" style="stroke:#181818;stroke-width:1;"/><line style="stroke:#181818;stroke-width:1;stroke-dasharray:2,2;" x1="133.3799" x2="311.7281" y1="588.4219" y2="588.4219"/><text fill="#000000" font-family="sans-serif" font-size="13" lengthAdjust="spacing" textLength="116.4604" x="145.3799" y="583.356">200 OK + Session</text></g><g class="message" data-entity-1="part2" data-entity-2="part1" id="msg17"><polygon fill="#181818" points="32.9999,613.5547,22.9999,617.5547,32.9999,621.5547,28.9999,617.5547" style="stroke:#181818;stroke-width:1;"/><line style="stroke:#181818;stroke-width:1;stroke-dasharray:2,2;" x1="26.9999" x2="127.3799" y1="617.5547" y2="617.5547"/><text fill="#000000" font-family="sans-serif" font-size="13" lengthAdjust="spacing" textLength="52.0001" x="38.9999" y="612.4888">&#30331;&#24405;&#25104;&#21151;</text></g><path d="M540,630.5547 L540,715.5547 L705,715.5547 L705,640.5547 L695,630.5547 L540,630.5547" fill="#FEFFDD" style="stroke:#181818;stroke-width:0.5;"/><path d="M695,630.5547 L695,640.5547 L705,640.5547 L695,630.5547" fill="#FEFFDD" style="stroke:#181818;stroke-width:0.5;"/><text fill="#000000" font-family="sans-serif" font-size="13" lengthAdjust="spacing" textLength="144.1871" x="546" y="647.6216">Better Auth &#33258;&#21160;&#22788;&#29702;&#65306;</text><text fill="#000000" font-family="sans-serif" font-size="13" lengthAdjust="spacing" textLength="60.8233" x="546" y="662.7544">- &#23494;&#30721;&#39564;&#35777;</text><text fill="#000000" font-family="sans-serif" font-size="13" lengthAdjust="spacing" textLength="88.5562" x="546" y="677.8872">- Session &#21019;&#24314;</text><text fill="#000000" font-family="sans-serif" font-size="13" lengthAdjust="spacing" textLength="78.6158" x="546" y="693.02">- Token &#29983;&#25104;</text><text fill="#000000" font-family="sans-serif" font-size="13" lengthAdjust="spacing" textLength="83.0782" x="546" y="708.1528">- Cookie &#35774;&#32622;</text><?plantuml-src XPDFRzCm6CRl_XIlUjfWfHF7Ie3627_4IaPQn6KISXktZThPaUsfggeTXc1q4qYJA0UOn3Y0D0sf5ISarerFaoKxzIjWEydMiC5EIVp-7kTzdjV6DSauX8Fza_vFm0BM1E78nrnwDS_7L48ks7eNVX_bTB7E6PM4kbdW0PQaWxih5A_9vesQGZXhjmataaPSp2hk4Ya9XmN56wXglbzeVHOiUItERAUqGXTSxCjaJno_8nTBNCM2G6wP2TdWfFnqoG1kTQhc4DSJPfdhDuIqHSZVFdC3HOYEtmUllvs-78R37uLWj1b-sK1dPOKcBXIvR9ShKD2T5eJNe7cF5iWgzjeeHHGzPKSfz8DGvKa1CuQT0nyBqM7SdKNJh98crfIixb7NfcIc1vqcuQG8FJ1YM8VrMPHoIk9M5Lssbgp52bo3-uvTCaE4vmyjnqeqj-0EKbm-yuTdch9KPx9xlj-5zWrrJwNvTwjPxFJWRJJQYAERZFlL6k_wSZBU-hyg7EoTz7UWJ8Jm68KAQn7wxqXgdEWCUx3AND8kGax4kjmSw75VbikZ9sNBgQX7nOQ4lXX4-lihiqZ1g-E8XiVXqH0M6Mjvf13z7WIxdo-pbpbR-Zw0GuJFg23d1ofxL6_EpuFz6AwdpKoTKmMQoQjSFnu6HnzKjC7s7aAKIGBSQpGbi7hciW5CNKM8tXm4s_l1rrVXpkPa_4bLyn1FD9wkMKWp2FgxmU4lisHy9RCq2x7j90IaUzCj_040?></g></svg>