<?plantuml 1.2026.3beta3?><svg xmlns="http://www.w3.org/2000/svg" xmlns:xlink="http://www.w3.org/1999/xlink" contentStyleType="text/css" data-diagram-type="SEQUENCE" height="1289px" preserveAspectRatio="none" style="width:1332px;height:1289px;background:#FFFFFF;" version="1.1" viewBox="0 0 1332 1289" width="1332px" zoomAndPan="magnify"><defs/><g><rect fill="none" height="265" style="stroke:#000000;stroke-width:1.5;" width="1306.1319" x="10" y="648.6875"/><g class="participant-lifeline" data-entity-uid="part1" data-qualified-name="user" id="part1-lifeline"><g><title>..</title><rect fill="#000000" fill-opacity="0.00000" height="1125.5859" width="8" x="32.9999" y="81.2969"/><line style="stroke:#181818;stroke-width:0.5;stroke-dasharray:5,5;" x1="36" x2="36" y1="81.2969" y2="1206.8828"/></g></g><g class="participant-lifeline" data-entity-uid="part2" data-qualified-name="frontend" id="part2-lifeline"><g><title>..</title><rect fill="#000000" fill-opacity="0.00000" height="1125.5859" width="8" x="221.8106" y="81.2969"/><line style="stroke:#181818;stroke-width:0.5;stroke-dasharray:5,5;" x1="224.8107" x2="224.8107" y1="81.2969" y2="1206.8828"/></g></g><g class="participant-lifeline" data-entity-uid="part3" data-qualified-name="gateway" id="part3-lifeline"><g><title>Gateway</title><rect fill="#000000" fill-opacity="0.00000" height="1125.5859" width="8" x="409.2628" y="81.2969"/><line style="stroke:#181818;stroke-width:0.5;stroke-dasharray:5,5;" x1="412.3404" x2="412.3404" y1="81.2969" y2="1206.8828"/></g></g><g class="participant-lifeline" data-entity-uid="part4" data-qualified-name="twofactor" id="part4-lifeline"><g><title>Better Auth</title><rect fill="#000000" fill-opacity="0.00000" height="1125.5859" width="8" x="589.5421" y="81.2969"/><line style="stroke:#181818;stroke-width:0.5;stroke-dasharray:5,5;" x1="593.128" x2="593.128" y1="81.2969" y2="1206.8828"/></g></g><g class="participant-lifeline" data-entity-uid="part5" data-qualified-name="adapter" id="part5-lifeline"><g><title>MikroORM</title><rect fill="#000000" fill-opacity="0.00000" height="1125.5859" width="8" x="944.2613" y="81.2969"/><line style="stroke:#181818;stroke-width:0.5;stroke-dasharray:5,5;" x1="947.6495" x2="947.6495" y1="81.2969" y2="1206.8828"/></g></g><g class="participant-lifeline" data-entity-uid="part6" data-qualified-name="db" id="part6-lifeline"><g><title>PostgreSQL</title><rect fill="#000000" fill-opacity="0.00000" height="1125.5859" width="8" x="1258.7554" y="81.2969"/><line style="stroke:#181818;stroke-width:0.5;stroke-dasharray:5,5;" x1="1262.379" x2="1262.379" y1="81.2969" y2="1206.8828"/></g></g><g class="participant participant-head" data-entity-uid="part1" data-qualified-name="user" id="part1-head"><text fill="#000000" font-family="sans-serif" font-size="14" lengthAdjust="spacing" textLength="27.9999" x="20" y="77.9951">&#29992;&#25143;</text><ellipse cx="36.9999" cy="13.5" fill="#E2E2F0" rx="8" ry="8" style="stroke:#181818;stroke-width:0.5;"/><path d="M36.9999,21.5 L36.9999,48.5 M23.9999,29.5 L49.9999,29.5 M36.9999,48.5 L23.9999,63.5 M36.9999,48.5 L49.9999,63.5" fill="none" style="stroke:#181818;stroke-width:0.5;"/></g><g class="participant participant-tail" data-entity-uid="part1" data-qualified-name="user" id="part1-tail"><text fill="#000000" font-family="sans-serif" font-size="14" lengthAdjust="spacing" textLength="27.9999" x="20" y="1218.8779">&#29992;&#25143;</text><ellipse cx="36.9999" cy="1230.6797" fill="#E2E2F0" rx="8" ry="8" style="stroke:#181818;stroke-width:0.5;"/><path d="M36.9999,1238.6797 L36.9999,1265.6797 M23.9999,1246.6797 L49.9999,1246.6797 M36.9999,1265.6797 L23.9999,1280.6797 M36.9999,1265.6797 L49.9999,1280.6797" fill="none" style="stroke:#181818;stroke-width:0.5;"/></g><g class="participant participant-head" data-entity-uid="part2" data-qualified-name="frontend" id="part2-head"><rect fill="#E2E2F0" height="30.2969" rx="2.5" ry="2.5" style="stroke:#181818;stroke-width:0.5;" width="41.9999" x="204.8107" y="50"/><text fill="#000000" font-family="sans-serif" font-size="14" lengthAdjust="spacing" textLength="27.9999" x="211.8107" y="69.9951">&#21069;&#31471;</text></g><g class="participant participant-tail" data-entity-uid="part2" data-qualified-name="frontend" id="part2-tail"><rect fill="#E2E2F0" height="30.2969" rx="2.5" ry="2.5" style="stroke:#181818;stroke-width:0.5;" width="41.9999" x="204.8107" y="1205.8828"/><text fill="#000000" font-family="sans-serif" font-size="14" lengthAdjust="spacing" textLength="27.9999" x="211.8107" y="1225.8779">&#21069;&#31471;</text></g><g class="participant participant-head" data-entity-uid="part3" data-qualified-name="gateway" id="part3-head"><rect fill="#E2E2F0" height="30.2969" rx="2.5" ry="2.5" style="stroke:#181818;stroke-width:0.5;" width="75.8447" x="375.3404" y="50"/><text fill="#000000" font-family="sans-serif" font-size="14" lengthAdjust="spacing" textLength="61.8447" x="382.3404" y="69.9951">Gateway</text></g><g class="participant participant-tail" data-entity-uid="part3" data-qualified-name="gateway" id="part3-tail"><rect fill="#E2E2F0" height="30.2969" rx="2.5" ry="2.5" style="stroke:#181818;stroke-width:0.5;" width="75.8447" x="375.3404" y="1205.8828"/><text fill="#000000" font-family="sans-serif" font-size="14" lengthAdjust="spacing" textLength="61.8447" x="382.3404" y="1225.8779">Gateway</text></g><g class="participant participant-head" data-entity-uid="part4" data-qualified-name="twofactor" id="part4-head"><rect fill="#E2E2F0" height="46.5938" rx="2.5" ry="2.5" style="stroke:#181818;stroke-width:0.5;" width="94.8281" x="546.128" y="33.7031"/><text fill="#000000" font-family="sans-serif" font-size="14" lengthAdjust="spacing" textLength="80.8281" x="553.128" y="53.6982">Better Auth</text><text fill="#000000" font-family="sans-serif" font-size="14" lengthAdjust="spacing" textLength="72.707" x="557.1885" y="69.9951">TwoFactor</text></g><g class="participant participant-tail" data-entity-uid="part4" data-qualified-name="twofactor" id="part4-tail"><rect fill="#E2E2F0" height="46.5938" rx="2.5" ry="2.5" style="stroke:#181818;stroke-width:0.5;" width="94.8281" x="546.128" y="1205.8828"/><text fill="#000000" font-family="sans-serif" font-size="14" lengthAdjust="spacing" textLength="80.8281" x="553.128" y="1225.8779">Better Auth</text><text fill="#000000" font-family="sans-serif" font-size="14" lengthAdjust="spacing" textLength="72.707" x="557.1885" y="1242.1748">TwoFactor</text></g><g class="participant participant-head" data-entity-uid="part5" data-qualified-name="adapter" id="part5-head"><rect fill="#E2E2F0" height="46.5938" rx="2.5" ry="2.5" style="stroke:#181818;stroke-width:0.5;" width="85.2236" x="905.6495" y="33.7031"/><text fill="#000000" font-family="sans-serif" font-size="14" lengthAdjust="spacing" textLength="71.2236" x="912.6495" y="53.6982">MikroORM</text><text fill="#000000" font-family="sans-serif" font-size="14" lengthAdjust="spacing" textLength="55.7881" x="920.3672" y="69.9951">Adapter</text></g><g class="participant participant-tail" data-entity-uid="part5" data-qualified-name="adapter" id="part5-tail"><rect fill="#E2E2F0" height="46.5938" rx="2.5" ry="2.5" style="stroke:#181818;stroke-width:0.5;" width="85.2236" x="905.6495" y="1205.8828"/><text fill="#000000" font-family="sans-serif" font-size="14" lengthAdjust="spacing" textLength="71.2236" x="912.6495" y="1225.8779">MikroORM</text><text fill="#000000" font-family="sans-serif" font-size="14" lengthAdjust="spacing" textLength="55.7881" x="920.3672" y="1242.1748">Adapter</text></g><g class="participant participant-head" data-entity-uid="part6" data-qualified-name="db" id="part6-head"><text fill="#000000" font-family="sans-serif" font-size="14" lengthAdjust="spacing" textLength="80.7529" x="1219.379" y="77.9951">PostgreSQL</text><path d="M1244.7554,29 C1244.7554,19 1262.7554,19 1262.7554,19 C1262.7554,19 1280.7554,19 1280.7554,29 L1280.7554,55 C1280.7554,65 1262.7554,65 1262.7554,65 C1262.7554,65 1244.7554,65 1244.7554,55 L1244.7554,29" fill="#E2E2F0" style="stroke:#181818;stroke-width:0.5;"/><path d="M1244.7554,29 C1244.7554,39 1262.7554,39 1262.7554,39 C1262.7554,39 1280.7554,39 1280.7554,29" fill="none" style="stroke:#181818;stroke-width:0.5;"/></g><g class="participant participant-tail" data-entity-uid="part6" data-qualified-name="db" id="part6-tail"><text fill="#000000" font-family="sans-serif" font-size="14" lengthAdjust="spacing" textLength="80.7529" x="1219.379" y="1218.8779">PostgreSQL</text><path d="M1244.7554,1232.1797 C1244.7554,1222.1797 1262.7554,1222.1797 1262.7554,1222.1797 C1262.7554,1222.1797 1280.7554,1222.1797 1280.7554,1232.1797 L1280.7554,1258.1797 C1280.7554,1268.1797 1262.7554,1268.1797 1262.7554,1268.1797 C1262.7554,1268.1797 1244.7554,1268.1797 1244.7554,1258.1797 L1244.7554,1232.1797" fill="#E2E2F0" style="stroke:#181818;stroke-width:0.5;"/><path d="M1244.7554,1232.1797 C1244.7554,1242.1797 1262.7554,1242.1797 1262.7554,1242.1797 C1262.7554,1242.1797 1280.7554,1242.1797 1280.7554,1232.1797" fill="none" style="stroke:#181818;stroke-width:0.5;"/></g><rect fill="#EEEEEE" height="3" style="stroke:#EEEEEE;stroke-width:1;" width="1326.1319" x="0" y="111.8633"/><line style="stroke:#000000;stroke-width:1;" x1="0" x2="1326.1319" y1="111.8633" y2="111.8633"/><line style="stroke:#000000;stroke-width:1;" x1="0" x2="1326.1319" y1="114.8633" y2="114.8633"/><rect fill="#EEEEEE" height="23.1328" style="stroke:#000000;stroke-width:2;" width="77.0386" x="624.5466" y="101.2969"/><text fill="#000000" font-family="sans-serif" font-size="13" font-weight="bold" lengthAdjust="spacing" textLength="58.5127" x="630.5466" y="117.3638">&#21551;&#29992; 2FA</text><g class="message" data-entity-1="part1" data-entity-2="part2" id="msg1"><polygon fill="#181818" points="213.8106,151.5625,223.8106,155.5625,213.8106,159.5625,217.8106,155.5625" style="stroke:#181818;stroke-width:1;"/><line style="stroke:#181818;stroke-width:1;" x1="36.9999" x2="219.8106" y1="155.5625" y2="155.5625"/><text fill="#000000" font-family="sans-serif" font-size="13" lengthAdjust="spacing" textLength="80.774" x="43.9999" y="150.4966">&#28857;&#20987;&#21551;&#29992; 2FA</text></g><g class="message" data-entity-1="part2" data-entity-2="part3" id="msg2"><polygon fill="#181818" points="401.2628,180.6953,411.2628,184.6953,401.2628,188.6953,405.2628,184.6953" style="stroke:#181818;stroke-width:1;"/><line style="stroke:#181818;stroke-width:1;" x1="225.8106" x2="407.2628" y1="184.6953" y2="184.6953"/><text fill="#000000" font-family="sans-serif" font-size="13" lengthAdjust="spacing" textLength="145.958" x="232.8106" y="179.6294">POST /auth/2fa/enable</text></g><g class="message" data-entity-1="part3" data-entity-2="part4" id="msg3"><polygon fill="#181818" points="581.5421,209.8281,591.5421,213.8281,581.5421,217.8281,585.5421,213.8281" style="stroke:#181818;stroke-width:1;"/><line style="stroke:#181818;stroke-width:1;" x1="413.2628" x2="587.5421" y1="213.8281" y2="213.8281"/><text fill="#000000" font-family="sans-serif" font-size="13" lengthAdjust="spacing" textLength="52.0001" x="420.2628" y="208.7622">&#29983;&#25104;&#23494;&#38053;</text></g><g class="message" data-entity-1="part4" data-entity-2="part4" id="msg4"><line style="stroke:#181818;stroke-width:1;" x1="593.5421" x2="635.5421" y1="242.9609" y2="242.9609"/><line style="stroke:#181818;stroke-width:1;" x1="635.5421" x2="635.5421" y1="242.9609" y2="255.9609"/><line style="stroke:#181818;stroke-width:1;" x1="594.5421" x2="635.5421" y1="255.9609" y2="255.9609"/><polygon fill="#181818" points="604.5421,251.9609,594.5421,255.9609,604.5421,259.9609,600.5421,255.9609" style="stroke:#181818;stroke-width:1;"/><text fill="#000000" font-family="sans-serif" font-size="13" lengthAdjust="spacing" textLength="110.0557" x="600.5421" y="237.895">&#29983;&#25104; TOTP Secret</text></g><g class="message" data-entity-1="part4" data-entity-2="part5" id="msg5"><polygon fill="#181818" points="936.2613,281.0938,946.2613,285.0938,936.2613,289.0938,940.2613,285.0938" style="stroke:#181818;stroke-width:1;"/><line style="stroke:#181818;stroke-width:1;" x1="593.5421" x2="942.2613" y1="285.0938" y2="285.0938"/><text fill="#000000" font-family="sans-serif" font-size="13" lengthAdjust="spacing" textLength="225.4497" x="600.5421" y="280.0278">create({ model: "authenticator" })</text></g><g class="message" data-entity-1="part5" data-entity-2="part6" id="msg6"><polygon fill="#181818" points="1250.7554,310.2266,1260.7554,314.2266,1250.7554,318.2266,1254.7554,314.2266" style="stroke:#181818;stroke-width:1;"/><line style="stroke:#181818;stroke-width:1;" x1="948.2613" x2="1256.7554" y1="314.2266" y2="314.2266"/><text fill="#000000" font-family="sans-serif" font-size="13" lengthAdjust="spacing" textLength="174.9922" x="955.2613" y="309.1606">INSERT INTO authenticator</text></g><g class="message" data-entity-1="part6" data-entity-2="part5" id="msg7"><polygon fill="#181818" points="959.2613,339.3594,949.2613,343.3594,959.2613,347.3594,955.2613,343.3594" style="stroke:#181818;stroke-width:1;"/><line style="stroke:#181818;stroke-width:1;stroke-dasharray:2,2;" x1="953.2613" x2="1261.7554" y1="343.3594" y2="343.3594"/><text fill="#000000" font-family="sans-serif" font-size="13" lengthAdjust="spacing" textLength="131.0093" x="965.2613" y="338.2935">Authenticator Entity</text></g><g class="message" data-entity-1="part4" data-entity-2="part3" id="msg8"><polygon fill="#181818" points="424.2628,368.4922,414.2628,372.4922,424.2628,376.4922,420.2628,372.4922" style="stroke:#181818;stroke-width:1;"/><line style="stroke:#181818;stroke-width:1;stroke-dasharray:2,2;" x1="418.2628" x2="592.5421" y1="372.4922" y2="372.4922"/><text fill="#000000" font-family="sans-serif" font-size="13" lengthAdjust="spacing" textLength="144.187" x="430.2628" y="367.4263">Secret + QR Code URI</text></g><g class="message" data-entity-1="part3" data-entity-2="part2" id="msg9"><polygon fill="#181818" points="236.8106,397.625,226.8106,401.625,236.8106,405.625,232.8106,401.625" style="stroke:#181818;stroke-width:1;"/><line style="stroke:#181818;stroke-width:1;stroke-dasharray:2,2;" x1="230.8106" x2="412.2628" y1="401.625" y2="401.625"/><text fill="#000000" font-family="sans-serif" font-size="13" lengthAdjust="spacing" textLength="86.8106" x="242.8106" y="396.5591">&#36820;&#22238; QR Code</text></g><g class="message" data-entity-1="part2" data-entity-2="part1" id="msg10"><polygon fill="#181818" points="47.9999,426.7578,37.9999,430.7578,47.9999,434.7578,43.9999,430.7578" style="stroke:#181818;stroke-width:1;"/><line style="stroke:#181818;stroke-width:1;stroke-dasharray:2,2;" x1="41.9999" x2="224.8106" y1="430.7578" y2="430.7578"/><text fill="#000000" font-family="sans-serif" font-size="13" lengthAdjust="spacing" textLength="86.8106" x="53.9999" y="425.6919">&#26174;&#31034; QR Code</text></g><rect fill="#EEEEEE" height="3" style="stroke:#EEEEEE;stroke-width:1;" width="1326.1319" x="0" y="459.3242"/><line style="stroke:#000000;stroke-width:1;" x1="0" x2="1326.1319" y1="459.3242" y2="459.3242"/><line style="stroke:#000000;stroke-width:1;" x1="0" x2="1326.1319" y1="462.3242" y2="462.3242"/><rect fill="#EEEEEE" height="23.1328" style="stroke:#000000;stroke-width:2;" width="77.0386" x="624.5466" y="448.7578"/><text fill="#000000" font-family="sans-serif" font-size="13" font-weight="bold" lengthAdjust="spacing" textLength="58.5127" x="630.5466" y="464.8247">&#39564;&#35777; 2FA</text><g class="message" data-entity-1="part1" data-entity-2="part2" id="msg11"><polygon fill="#181818" points="213.8106,499.0234,223.8106,503.0234,213.8106,507.0234,217.8106,503.0234" style="stroke:#181818;stroke-width:1;"/><line style="stroke:#181818;stroke-width:1;" x1="36.9999" x2="219.8106" y1="503.0234" y2="503.0234"/><text fill="#000000" font-family="sans-serif" font-size="13" lengthAdjust="spacing" textLength="164.8107" x="43.9999" y="497.9575">&#25195;&#25551; QR Code&#65292;&#36755;&#20837;&#39564;&#35777;&#30721;</text></g><g class="message" data-entity-1="part2" data-entity-2="part3" id="msg12"><polygon fill="#181818" points="401.2628,543.2891,411.2628,547.2891,401.2628,551.2891,405.2628,547.2891" style="stroke:#181818;stroke-width:1;"/><line style="stroke:#181818;stroke-width:1;" x1="225.8106" x2="407.2628" y1="547.2891" y2="547.2891"/><text fill="#000000" font-family="sans-serif" font-size="13" lengthAdjust="spacing" textLength="138.8105" x="232.8106" y="527.0903">POST /auth/2fa/verify</text><text fill="#000000" font-family="sans-serif" font-size="13" lengthAdjust="spacing" textLength="89.4893" x="232.8106" y="542.2231">code: 123456</text></g><g class="message" data-entity-1="part3" data-entity-2="part4" id="msg13"><polygon fill="#181818" points="581.5421,572.4219,591.5421,576.4219,581.5421,580.4219,585.5421,576.4219" style="stroke:#181818;stroke-width:1;"/><line style="stroke:#181818;stroke-width:1;" x1="413.2628" x2="587.5421" y1="576.4219" y2="576.4219"/><text fill="#000000" font-family="sans-serif" font-size="13" lengthAdjust="spacing" textLength="156.2793" x="420.2628" y="571.356">verifyTotp(code, secret)</text></g><g class="message" data-entity-1="part4" data-entity-2="part4" id="msg14"><line style="stroke:#181818;stroke-width:1;" x1="593.5421" x2="635.5421" y1="620.6875" y2="620.6875"/><line style="stroke:#181818;stroke-width:1;" x1="635.5421" x2="635.5421" y1="620.6875" y2="633.6875"/><line style="stroke:#181818;stroke-width:1;" x1="594.5421" x2="635.5421" y1="633.6875" y2="633.6875"/><polygon fill="#181818" points="604.5421,629.6875,594.5421,633.6875,604.5421,637.6875,600.5421,633.6875" style="stroke:#181818;stroke-width:1;"/><text fill="#000000" font-family="sans-serif" font-size="13" lengthAdjust="spacing" textLength="64.086" x="600.5421" y="600.4888">&#39564;&#35777; TOTP</text><text fill="#000000" font-family="sans-serif" font-size="13" lengthAdjust="spacing" textLength="101.296" x="600.5421" y="615.6216">&#65288;&#26102;&#38388;&#31383;&#21475; &#177;1&#65289;</text></g><path d="M10,648.6875 L74.4429,648.6875 L74.4429,655.8203 L64.4429,665.8203 L10,665.8203 L10,648.6875" fill="#EEEEEE" style="stroke:#000000;stroke-width:1.5;"/><rect fill="none" height="265" style="stroke:#000000;stroke-width:1.5;" width="1306.1319" x="10" y="648.6875"/><text fill="#000000" font-family="sans-serif" font-size="13" font-weight="bold" lengthAdjust="spacing" textLength="19.4429" x="25" y="661.7544">alt</text><text fill="#000000" font-family="sans-serif" font-size="11" font-weight="bold" lengthAdjust="spacing" textLength="54.0544" x="89.4429" y="660.8979">[&#39564;&#35777;&#25104;&#21151;]</text><g class="message" data-entity-1="part4" data-entity-2="part5" id="msg15"><polygon fill="#181818" points="936.2613,682.9531,946.2613,686.9531,936.2613,690.9531,940.2613,686.9531" style="stroke:#181818;stroke-width:1;"/><line style="stroke:#181818;stroke-width:1;" x1="593.5421" x2="942.2613" y1="686.9531" y2="686.9531"/><text fill="#000000" font-family="sans-serif" font-size="13" lengthAdjust="spacing" textLength="330.7192" x="600.5421" y="681.8872">update({ model: "user", twoFactorEnabled: true })</text></g><g class="message" data-entity-1="part5" data-entity-2="part6" id="msg16"><polygon fill="#181818" points="1250.7554,712.0859,1260.7554,716.0859,1250.7554,720.0859,1254.7554,716.0859" style="stroke:#181818;stroke-width:1;"/><line style="stroke:#181818;stroke-width:1;" x1="948.2613" x2="1256.7554" y1="716.0859" y2="716.0859"/><text fill="#000000" font-family="sans-serif" font-size="13" lengthAdjust="spacing" textLength="290.4941" x="955.2613" y="711.02">UPDATE user SET two_factor_enabled = true</text></g><g class="message" data-entity-1="part4" data-entity-2="part3" id="msg17"><polygon fill="#181818" points="424.2628,741.2188,414.2628,745.2188,424.2628,749.2188,420.2628,745.2188" style="stroke:#181818;stroke-width:1;"/><line style="stroke:#181818;stroke-width:1;stroke-dasharray:2,2;" x1="418.2628" x2="592.5421" y1="745.2188" y2="745.2188"/><text fill="#000000" font-family="sans-serif" font-size="13" lengthAdjust="spacing" textLength="50.8511" x="430.2628" y="740.1528">success</text></g><g class="message" data-entity-1="part3" data-entity-2="part2" id="msg18"><polygon fill="#181818" points="236.8106,770.3516,226.8106,774.3516,236.8106,778.3516,232.8106,774.3516" style="stroke:#181818;stroke-width:1;"/><line style="stroke:#181818;stroke-width:1;stroke-dasharray:2,2;" x1="230.8106" x2="412.2628" y1="774.3516" y2="774.3516"/><text fill="#000000" font-family="sans-serif" font-size="13" lengthAdjust="spacing" textLength="67.774" x="242.8106" y="769.2856">2FA &#24050;&#21551;&#29992;</text></g><g class="message" data-entity-1="part2" data-entity-2="part1" id="msg19"><polygon fill="#181818" points="47.9999,799.4844,37.9999,803.4844,47.9999,807.4844,43.9999,803.4844" style="stroke:#181818;stroke-width:1;"/><line style="stroke:#181818;stroke-width:1;stroke-dasharray:2,2;" x1="41.9999" x2="224.8106" y1="803.4844" y2="803.4844"/><text fill="#000000" font-family="sans-serif" font-size="13" lengthAdjust="spacing" textLength="52.0001" x="53.9999" y="798.4185">&#21551;&#29992;&#25104;&#21151;</text></g><line style="stroke:#000000;stroke-width:1;stroke-dasharray:2,2;" x1="10" x2="1316.1319" y1="812.4844" y2="812.4844"/><text fill="#000000" font-family="sans-serif" font-size="11" font-weight="bold" lengthAdjust="spacing" textLength="54.0544" x="15" y="822.6948">[&#39564;&#35777;&#22833;&#36133;]</text><g class="message" data-entity-1="part4" data-entity-2="part3" id="msg20"><polygon fill="#181818" points="424.2628,843.4219,414.2628,847.4219,424.2628,851.4219,420.2628,847.4219" style="stroke:#181818;stroke-width:1;"/><line style="stroke:#181818;stroke-width:1;stroke-dasharray:2,2;" x1="418.2628" x2="592.5421" y1="847.4219" y2="847.4219"/><text fill="#000000" font-family="sans-serif" font-size="13" lengthAdjust="spacing" textLength="78.4697" x="430.2628" y="842.356">invalid code</text></g><g class="message" data-entity-1="part3" data-entity-2="part2" id="msg21"><polygon fill="#181818" points="236.8106,872.5547,226.8106,876.5547,236.8106,880.5547,232.8106,876.5547" style="stroke:#181818;stroke-width:1;"/><line style="stroke:#181818;stroke-width:1;stroke-dasharray:2,2;" x1="230.8106" x2="412.2628" y1="876.5547" y2="876.5547"/><text fill="#000000" font-family="sans-serif" font-size="13" lengthAdjust="spacing" textLength="116.2256" x="242.8106" y="871.4888">401 Unauthorized</text></g><g class="message" data-entity-1="part2" data-entity-2="part1" id="msg22"><polygon fill="#181818" points="47.9999,901.6875,37.9999,905.6875,47.9999,909.6875,43.9999,905.6875" style="stroke:#181818;stroke-width:1;"/><line style="stroke:#181818;stroke-width:1;stroke-dasharray:2,2;" x1="41.9999" x2="224.8106" y1="905.6875" y2="905.6875"/><text fill="#000000" font-family="sans-serif" font-size="13" lengthAdjust="spacing" textLength="65.0001" x="53.9999" y="900.6216">&#39564;&#35777;&#30721;&#38169;&#35823;</text></g><rect fill="#EEEEEE" height="3" style="stroke:#EEEEEE;stroke-width:1;" width="1326.1319" x="0" y="941.2539"/><line style="stroke:#000000;stroke-width:1;" x1="0" x2="1326.1319" y1="941.2539" y2="941.2539"/><line style="stroke:#000000;stroke-width:1;" x1="0" x2="1326.1319" y1="944.2539" y2="944.2539"/><rect fill="#EEEEEE" height="23.1328" style="stroke:#000000;stroke-width:2;" width="116.0387" x="605.0466" y="930.6875"/><text fill="#000000" font-family="sans-serif" font-size="13" font-weight="bold" lengthAdjust="spacing" textLength="97.5128" x="611.0466" y="946.7544">&#30331;&#24405;&#26102;&#39564;&#35777; 2FA</text><g class="message" data-entity-1="part1" data-entity-2="part2" id="msg23"><polygon fill="#181818" points="213.8106,980.9531,223.8106,984.9531,213.8106,988.9531,217.8106,984.9531" style="stroke:#181818;stroke-width:1;"/><line style="stroke:#181818;stroke-width:1;" x1="36.9999" x2="219.8106" y1="984.9531" y2="984.9531"/><text fill="#000000" font-family="sans-serif" font-size="13" lengthAdjust="spacing" textLength="82.38" x="43.9999" y="979.8872">&#36755;&#20837;&#37038;&#31665;/&#23494;&#30721;</text></g><g class="message" data-entity-1="part2" data-entity-2="part3" id="msg24"><polygon fill="#181818" points="401.2628,1010.0859,411.2628,1014.0859,401.2628,1018.0859,405.2628,1014.0859" style="stroke:#181818;stroke-width:1;"/><line style="stroke:#181818;stroke-width:1;" x1="225.8106" x2="407.2628" y1="1014.0859" y2="1014.0859"/><text fill="#000000" font-family="sans-serif" font-size="13" lengthAdjust="spacing" textLength="160.3481" x="232.8106" y="1009.02">POST /auth/sign-in/email</text></g><g class="message" data-entity-1="part3" data-entity-2="part4" id="msg25"><polygon fill="#181818" points="581.5421,1039.2188,591.5421,1043.2188,581.5421,1047.2188,585.5421,1043.2188" style="stroke:#181818;stroke-width:1;"/><line style="stroke:#181818;stroke-width:1;" x1="413.2628" x2="587.5421" y1="1043.2188" y2="1043.2188"/><text fill="#000000" font-family="sans-serif" font-size="13" lengthAdjust="spacing" textLength="92.8408" x="420.2628" y="1038.1528">authenticate()</text></g><g class="message" data-entity-1="part4" data-entity-2="part5" id="msg26"><polygon fill="#181818" points="936.2613,1068.3516,946.2613,1072.3516,936.2613,1076.3516,940.2613,1072.3516" style="stroke:#181818;stroke-width:1;"/><line style="stroke:#181818;stroke-width:1;" x1="593.5421" x2="942.2613" y1="1072.3516" y2="1072.3516"/><text fill="#000000" font-family="sans-serif" font-size="13" lengthAdjust="spacing" textLength="195.4824" x="600.5421" y="1067.2856">findOne({ where: { email } })</text></g><g class="message" data-entity-1="part5" data-entity-2="part4" id="msg27"><polygon fill="#181818" points="604.5421,1097.4844,594.5421,1101.4844,604.5421,1105.4844,600.5421,1101.4844" style="stroke:#181818;stroke-width:1;"/><line style="stroke:#181818;stroke-width:1;stroke-dasharray:2,2;" x1="598.5421" x2="947.2613" y1="1101.4844" y2="1101.4844"/><text fill="#000000" font-family="sans-serif" font-size="13" lengthAdjust="spacing" textLength="196.3013" x="610.5421" y="1096.4185">User (twoFactorEnabled: true)</text></g><g class="message" data-entity-1="part4" data-entity-2="part3" id="msg28"><polygon fill="#181818" points="424.2628,1126.6172,414.2628,1130.6172,424.2628,1134.6172,420.2628,1130.6172" style="stroke:#181818;stroke-width:1;"/><line style="stroke:#181818;stroke-width:1;stroke-dasharray:2,2;" x1="418.2628" x2="592.5421" y1="1130.6172" y2="1130.6172"/><text fill="#000000" font-family="sans-serif" font-size="13" lengthAdjust="spacing" textLength="80.774" x="430.2628" y="1125.5513">&#38656;&#35201;&#39564;&#35777; 2FA</text></g><g class="message" data-entity-1="part3" data-entity-2="part2" id="msg29"><polygon fill="#181818" points="236.8106,1155.75,226.8106,1159.75,236.8106,1163.75,232.8106,1159.75" style="stroke:#181818;stroke-width:1;"/><line style="stroke:#181818;stroke-width:1;stroke-dasharray:2,2;" x1="230.8106" x2="412.2628" y1="1159.75" y2="1159.75"/><text fill="#000000" font-family="sans-serif" font-size="13" lengthAdjust="spacing" textLength="163.4521" x="242.8106" y="1154.6841">403 Two Factor Required</text></g><g class="message" data-entity-1="part2" data-entity-2="part1" id="msg30"><polygon fill="#181818" points="47.9999,1184.8828,37.9999,1188.8828,47.9999,1192.8828,43.9999,1188.8828" style="stroke:#181818;stroke-width:1;"/><line style="stroke:#181818;stroke-width:1;stroke-dasharray:2,2;" x1="41.9999" x2="224.8106" y1="1188.8828" y2="1188.8828"/><text fill="#000000" font-family="sans-serif" font-size="13" lengthAdjust="spacing" textLength="110.9063" x="53.9999" y="1183.8169">&#35831;&#36755;&#20837; 2FA &#39564;&#35777;&#30721;</text></g><?plantuml-src ZLHTQnD157sVNt79Ku8jiH_w48WGDPM2DMcoUGkKINRIBgQpSNVIK4l15jHMAYqQgKMnWgr82rqgnQAj5VmlczqyzIyuCvkl3TdQl6IMU-wTUyyvSt6HwGOuzM-DjLF09bHDOg0ADfXMr2gOCWZPww-TGoiaWYL3funGrGzuW1cfuKM9cFNEVi1TmXWn855bStcgrFG9B2wLU5RJI_BBdp6bFJRqL6OgJnCghl1a2SRU6QcOuG8s2OJIkibc3PATVYW1QW6XU1piBOiF1ACJ2OZ7aPW8XkzqceSOEAi_xPTdNHZgn3YkDGA7fLDP1QAOjnqTBU4eeRXG9gWTvz1Ezw9cVRUnjcLRBvflzb4tC105Iaf9GvOK3SBysDQ87CbZ_ABm4iphAYd782Jw89HpX2Lvon7K1lCyjS1J9Xzbanc5_oafyA4H3m_xgYTwmv3a9xROsucF1wzHk07J6RZ7ku5SPh9BWvzQzq_T_l2fZUmXbiEa4Z5elBzmzdvr84Anvi66QwrSeLXZ_R2nkTdEkJpVS2_Usi_tlJpdyyhr55mWXbPQpDCYhn63aT6nyLktW_Jqi8hEAc417m9JiX09rhOrXD0sJo_FrnhRFvhR9yx1jhtv1VuUZroUhoDSPYsSCCkhNGJy5-20QaNrEq3m4XeISEy59QKXrHWmeqg48KInVbFaqlSJIjBZFfjKHFQCTzkCPsWLuh90Voi-8irgiKXCKs82b1VYsQVVlLSbWOF4zyAjuKcPFsAF3dlls3tPlx87ZIxWigQ2aEEgHiPlZa2E2j5rGtjArC1UEkvfrdTSoq9YimatEZjdzkztGhx_sRBbmjKZv-Wuoj_-jPneQhDqMADHCe-rSf3zUjul2KU2baH9esgA2e_KveZ1FRq4iYei-_P3N-sS62Gys4QHm2tG_FZC_RhIfGG5qZy6VCc3Lnmov4bLCxWAWnHmhLEFGibnHuz_?></g></svg>